<?xml version="1.0" encoding="utf-8"?>
<!-- Generator: Adobe Illustrator 21.0.0, SVG Export Plug-In . SVG Version: 6.00 Build 0)  -->
<svg version="1.1" id="Layer_1" xmlns="http://www.w3.org/2000/svg" xmlns:xlink="http://www.w3.org/1999/xlink" x="0px" y="0px"
	 width="1400px" height="980px" viewBox="0 0 1400 980" style="enable-background:new 0 0 1400 980;" xml:space="preserve">
<style type="text/css">
	.st0{fill-rule:evenodd;clip-rule:evenodd;fill:#E6E6E6;}
	.st1{fill-rule:evenodd;clip-rule:evenodd;fill:#B3B3B3;}
	.st2{fill-rule:evenodd;clip-rule:evenodd;fill:#9999FF;}
	.st3{fill-rule:evenodd;clip-rule:evenodd;fill:#FFFFFF;}
	.st4{fill-rule:evenodd;clip-rule:evenodd;fill:#58E888;}
	.st5{fill-rule:evenodd;clip-rule:evenodd;fill:#238A45;}
	.st6{fill-rule:evenodd;clip-rule:evenodd;fill:#FFD866;}
	.st7{fill-rule:evenodd;clip-rule:evenodd;fill:#9C843D;}
	.st8{fill-rule:evenodd;clip-rule:evenodd;fill:#D5A8FA;}
	.st9{fill-rule:evenodd;clip-rule:evenodd;fill:#84659E;}
	.st10{fill-rule:evenodd;clip-rule:evenodd;fill:#FFABAE;}
	.st11{fill-rule:evenodd;clip-rule:evenodd;fill:#855859;}
	.st12{fill-rule:evenodd;clip-rule:evenodd;fill:#E8696D;}
	.st13{fill-rule:evenodd;clip-rule:evenodd;fill:#298787;}
	.st14{fill-rule:evenodd;clip-rule:evenodd;fill:#BA4E52;}
	.st15{fill-rule:evenodd;clip-rule:evenodd;fill:#4D4D4D;}
	.st16{fill-rule:evenodd;clip-rule:evenodd;fill:#CCCCCC;}
</style>
<g>
	<rect class="st0" width="1400" height="980"/>
	<g>
		<path class="st1" d="M954.1,246.5l-366,366h812v-44.2l-321.8-321.8C1044,212.3,988.2,212.3,954.1,246.5z"/>
		<path class="st1" d="M321.8,246.5L0,568.3v44.2h812l-366-366C411.8,212.3,356,212.3,321.8,246.5z"/>
	</g>
	<rect y="612.5" class="st2" width="1400" height="367.5"/>
	<g>
		<path class="st3" d="M497.2,833c-1.5,0-2.7,0.5-3.6,1.6c-0.9,1.1-1.4,2.5-1.4,4.4c0,1.8,0.5,3.3,1.5,4.3c1,1,2.3,1.5,4,1.5
			c0.8,0,1.4-0.1,2-0.2c0.5-0.1,1.1-0.3,1.7-0.6v-1.5c-1.2,0.5-2.4,0.8-3.6,0.8c-1.2,0-2.1-0.3-2.7-1c-0.6-0.7-1-1.7-1-3.1h7.9v-1.1
			c0-1.5-0.4-2.8-1.2-3.7C499.7,833.5,498.6,833,497.2,833z M494,837.8c0.1-1.1,0.4-1.9,1-2.5c0.5-0.6,1.3-0.9,2.2-0.9
			c0.9,0,1.6,0.3,2.1,0.9c0.5,0.6,0.7,1.4,0.7,2.5H494z"/>
		<rect x="904.1" y="804.2" class="st3" width="1.7" height="11.4"/>
		<path class="st3" d="M470.8,838.1c-1-0.4-1.7-0.7-2-0.8c-0.3-0.2-0.6-0.4-0.8-0.6c-0.2-0.2-0.2-0.5-0.2-0.8c0-0.5,0.2-0.8,0.6-1.1
			c0.4-0.3,1-0.4,1.9-0.4c0.9,0,2,0.2,3.1,0.7l0.6-1.4c-1.2-0.5-2.4-0.7-3.6-0.7c-1.3,0-2.4,0.3-3.1,0.8c-0.8,0.5-1.1,1.3-1.1,2.2
			c0,0.5,0.1,1,0.3,1.3c0.2,0.4,0.5,0.7,1,1c0.4,0.3,1.2,0.6,2.3,1c1.1,0.4,1.9,0.8,2.3,1.1c0.4,0.3,0.6,0.7,0.6,1.1
			c0,0.6-0.2,1-0.7,1.3c-0.5,0.3-1.2,0.4-2.1,0.4c-0.6,0-1.2-0.1-1.8-0.2c-0.6-0.2-1.2-0.4-1.8-0.7v1.6c0.8,0.5,2,0.7,3.5,0.7
			c1.4,0,2.5-0.3,3.3-0.9c0.8-0.6,1.2-1.4,1.2-2.5c0-0.8-0.2-1.4-0.7-1.9S472.2,838.6,470.8,838.1z"/>
		<path class="st3" d="M905,802.2c0.3,0,0.5-0.1,0.7-0.3c0.2-0.2,0.3-0.5,0.3-0.9c0-0.4-0.1-0.7-0.3-0.9c-0.2-0.2-0.4-0.3-0.7-0.3
			c-0.3,0-0.5,0.1-0.7,0.3c-0.2,0.2-0.3,0.5-0.3,0.9c0,0.4,0.1,0.7,0.3,0.9C904.4,802.1,904.7,802.2,905,802.2z"/>
		<path class="st3" d="M860.8,802.2c0.3,0,0.5-0.1,0.7-0.3c0.2-0.2,0.3-0.5,0.3-0.9c0-0.4-0.1-0.7-0.3-0.9c-0.2-0.2-0.4-0.3-0.7-0.3
			c-0.3,0-0.5,0.1-0.7,0.3c-0.2,0.2-0.3,0.5-0.3,0.9c0,0.4,0.1,0.7,0.3,0.9C860.3,802.1,860.5,802.2,860.8,802.2z"/>
		<path class="st3" d="M505,815.4c0.6,0.3,1.3,0.4,2,0.4c1.5,0,2.6-0.5,3.5-1.6c0.8-1,1.3-2.5,1.3-4.4c0-1.9-0.4-3.3-1.2-4.3
			c-0.8-1-2-1.6-3.5-1.6c-0.8,0-1.4,0.1-2,0.4c-0.6,0.3-1.1,0.7-1.6,1.4h-0.1l-0.2-1.6h-1.4v16.5h1.7V816c0-0.6,0-1.2-0.1-1.9h0.1
			C503.9,814.7,504.4,815.1,505,815.4z M503.5,809.5c0-1.4,0.3-2.4,0.8-3.1c0.5-0.6,1.4-1,2.5-1c1,0,1.8,0.4,2.4,1.1
			c0.6,0.8,0.8,1.9,0.8,3.3c0,1.4-0.3,2.5-0.8,3.3c-0.6,0.8-1.3,1.2-2.3,1.2c-1.2,0-2-0.3-2.6-1c-0.5-0.7-0.8-1.8-0.8-3.4V809.5z"/>
		<path class="st3" d="M879.3,802.2c0.3,0,0.5-0.1,0.7-0.3c0.2-0.2,0.3-0.5,0.3-0.9c0-0.4-0.1-0.7-0.3-0.9c-0.2-0.2-0.4-0.3-0.7-0.3
			c-0.3,0-0.5,0.1-0.7,0.3c-0.2,0.2-0.3,0.5-0.3,0.9c0,0.4,0.1,0.7,0.3,0.9C878.7,802.1,879,802.2,879.3,802.2z"/>
		<path class="st3" d="M944.6,815.8c0.8,0,1.4-0.1,2-0.2c0.5-0.1,1.1-0.3,1.7-0.6v-1.5c-1.2,0.5-2.4,0.8-3.6,0.8
			c-1.2,0-2.1-0.3-2.7-1c-0.6-0.7-1-1.7-1-3h7.9v-1.1c0-1.5-0.4-2.8-1.2-3.7c-0.8-0.9-2-1.4-3.4-1.4c-1.5,0-2.7,0.5-3.6,1.6
			c-0.9,1.1-1.4,2.5-1.4,4.4c0,1.8,0.5,3.3,1.5,4.3C941.6,815.3,942.9,815.8,944.6,815.8z M941.9,806.3c0.5-0.6,1.3-0.9,2.2-0.9
			c0.9,0,1.6,0.3,2.1,0.9c0.5,0.6,0.7,1.4,0.7,2.5h-6C941.1,807.7,941.4,806.9,941.9,806.3z"/>
		<path class="st3" d="M467.6,813.5c-1.2,0.5-2.4,0.8-3.6,0.8c-1.2,0-2.1-0.3-2.7-1c-0.6-0.7-1-1.7-1-3h7.9v-1.1
			c0-1.5-0.4-2.8-1.2-3.7c-0.8-0.9-2-1.4-3.4-1.4c-1.5,0-2.7,0.5-3.6,1.6c-0.9,1.1-1.4,2.5-1.4,4.4c0,1.8,0.5,3.3,1.5,4.3
			c1,1,2.3,1.5,4,1.5c0.8,0,1.4-0.1,2-0.2c0.5-0.1,1.1-0.3,1.7-0.6V813.5z M461.2,806.3c0.5-0.6,1.3-0.9,2.2-0.9
			c0.9,0,1.6,0.3,2.1,0.9c0.5,0.6,0.7,1.4,0.7,2.5h-6C460.3,807.7,460.6,806.9,461.2,806.3z"/>
		<rect x="878.4" y="804.2" class="st3" width="1.7" height="11.4"/>
		<path class="st3" d="M486.5,838.1c-1-0.4-1.7-0.7-2-0.8c-0.3-0.2-0.6-0.4-0.8-0.6c-0.2-0.2-0.2-0.5-0.2-0.8c0-0.5,0.2-0.8,0.6-1.1
			c0.4-0.3,1-0.4,1.9-0.4c0.9,0,2,0.2,3.1,0.7l0.6-1.4c-1.2-0.5-2.4-0.7-3.6-0.7c-1.3,0-2.4,0.3-3.1,0.8c-0.8,0.5-1.1,1.3-1.1,2.2
			c0,0.5,0.1,1,0.3,1.3c0.2,0.4,0.5,0.7,1,1c0.4,0.3,1.2,0.6,2.3,1c1.1,0.4,1.9,0.8,2.3,1.1c0.4,0.3,0.6,0.7,0.6,1.1
			c0,0.6-0.2,1-0.7,1.3c-0.5,0.3-1.2,0.4-2.1,0.4c-0.6,0-1.2-0.1-1.8-0.2c-0.6-0.2-1.2-0.4-1.8-0.7v1.6c0.8,0.5,2,0.7,3.5,0.7
			c1.4,0,2.5-0.3,3.3-0.9c0.8-0.6,1.2-1.4,1.2-2.5c0-0.8-0.2-1.4-0.7-1.9C488.8,839.1,487.9,838.6,486.5,838.1z"/>
		<path class="st3" d="M484.9,806.1c0.4,0.5,0.6,1.1,0.6,2v7.4h1.7v-7.4c0-1.5-0.3-2.5-1-3.2c-0.6-0.7-1.6-1-2.9-1
			c-0.8,0-1.6,0.2-2.2,0.5c-0.6,0.3-1.1,0.8-1.5,1.4h-0.1c-0.5-1.3-1.7-1.9-3.5-1.9c-0.7,0-1.4,0.2-2,0.5c-0.6,0.3-1.1,0.7-1.4,1.3
			h-0.1l-0.3-1.6H471v11.4h1.7v-6c0-1.5,0.3-2.5,0.8-3.2c0.5-0.7,1.3-1,2.4-1c0.8,0,1.4,0.2,1.8,0.7c0.4,0.5,0.6,1.1,0.6,2v7.4h1.7
			v-6.4c0-1.3,0.3-2.2,0.8-2.9c0.5-0.6,1.3-0.9,2.4-0.9C483.9,805.4,484.5,805.7,484.9,806.1z"/>
		<path class="st3" d="M551.5,833c-0.7,0-1.3,0.1-2,0.3c-0.7,0.2-1.3,0.4-1.8,0.7l0.5,1.3c1.2-0.6,2.3-0.9,3.2-0.9
			c0.8,0,1.5,0.2,1.8,0.6c0.4,0.4,0.6,1.1,0.6,2v0.7l-1.9,0.1c-3.7,0.1-5.5,1.3-5.5,3.6c0,1.1,0.3,1.9,1,2.5
			c0.6,0.6,1.5,0.9,2.7,0.9c0.8,0,1.5-0.1,2.1-0.4c0.6-0.3,1.1-0.7,1.7-1.5h0.1l0.3,1.6h1.3v-7.8c0-1.3-0.3-2.3-1-2.9
			C553.9,833.3,552.9,833,551.5,833z M553.8,840c0,1.1-0.3,1.9-0.9,2.5c-0.6,0.6-1.5,0.9-2.5,0.9c-0.7,0-1.2-0.2-1.6-0.5
			c-0.4-0.3-0.6-0.8-0.6-1.4c0-0.8,0.3-1.4,0.9-1.8c0.6-0.4,1.6-0.6,3-0.6l1.7-0.1V840z"/>
		<path class="st3" d="M958,802.2c0.3,0,0.5-0.1,0.7-0.3c0.2-0.2,0.3-0.5,0.3-0.9c0-0.4-0.1-0.7-0.3-0.9c-0.2-0.2-0.4-0.3-0.7-0.3
			c-0.3,0-0.5,0.1-0.7,0.3c-0.2,0.2-0.3,0.5-0.3,0.9c0,0.4,0.1,0.7,0.3,0.9C957.5,802.1,957.7,802.2,958,802.2z"/>
		<path class="st3" d="M573,835.1c0.4,0.5,0.6,1.1,0.6,2v7.4h1.7v-7.4c0-1.5-0.3-2.5-1-3.2c-0.6-0.7-1.6-1-2.9-1
			c-0.8,0-1.6,0.2-2.2,0.5c-0.6,0.3-1.1,0.8-1.5,1.4h-0.1c-0.5-1.3-1.7-1.9-3.5-1.9c-0.7,0-1.4,0.2-2,0.5c-0.6,0.3-1.1,0.7-1.4,1.3
			h-0.1l-0.3-1.6h-1.4v11.4h1.7v-6c0-1.5,0.3-2.5,0.8-3.2c0.5-0.7,1.3-1,2.4-1c0.8,0,1.4,0.2,1.8,0.7c0.4,0.5,0.6,1.1,0.6,2v7.4h1.7
			v-6.4c0-1.3,0.3-2.2,0.8-2.8c0.5-0.6,1.3-0.9,2.4-0.9C572,834.5,572.6,834.7,573,835.1z"/>
		<path class="st3" d="M586.7,862c-1.5,0-2.7,0.5-3.6,1.6c-0.9,1.1-1.4,2.5-1.4,4.4c0,1.8,0.5,3.3,1.5,4.3c1,1,2.3,1.5,4,1.5
			c0.8,0,1.4-0.1,2-0.2c0.5-0.1,1.1-0.3,1.7-0.6v-1.5c-1.2,0.5-2.4,0.8-3.6,0.8c-1.2,0-2.1-0.3-2.7-1c-0.6-0.7-1-1.7-1-3.1h7.9v-1.1
			c0-1.5-0.4-2.8-1.2-3.7C589.2,862.5,588.1,862,586.7,862z M583.5,866.8c0.1-1.1,0.4-1.9,1-2.5c0.5-0.6,1.3-0.9,2.2-0.9
			c0.9,0,1.6,0.3,2.1,0.9c0.5,0.6,0.7,1.4,0.7,2.5H583.5z"/>
		<path class="st3" d="M512.4,833l0,0.8l0.1,0.8h-0.1c-0.8-1.1-2-1.7-3.6-1.7c-1.5,0-2.6,0.5-3.5,1.6c-0.8,1-1.3,2.5-1.3,4.4
			c0,1.9,0.4,3.3,1.2,4.3c0.8,1,2,1.5,3.5,1.5c1.6,0,2.8-0.6,3.6-1.7h0.1l0.2,1.5h1.4v-16.2h-1.7V833z M512.4,839.3
			c0,1.4-0.3,2.5-0.8,3.1c-0.5,0.6-1.4,1-2.6,1c-1,0-1.8-0.4-2.4-1.1c-0.5-0.7-0.8-1.8-0.8-3.3c0-1.4,0.3-2.6,0.8-3.3
			c0.5-0.8,1.3-1.2,2.3-1.2c1.2,0,2,0.3,2.6,1c0.5,0.7,0.8,1.8,0.8,3.5V839.3z"/>
		<path class="st3" d="M575.9,869.8c-0.4,1.2-0.6,1.9-0.7,2.3h-0.1c-0.1-0.5-0.4-1.5-1-3.1l-2.5-6.8h-1.9l4.3,11.4h2l4.3-11.4h-1.9
			C577.2,866.1,576.3,868.6,575.9,869.8z"/>
		<path class="st3" d="M547,815.6v-6.4c0-1.3,0.3-2.2,0.8-2.9c0.5-0.6,1.3-0.9,2.4-0.9c0.8,0,1.4,0.2,1.8,0.7c0.4,0.5,0.6,1.1,0.6,2
			v7.4h1.7v-7.4c0-1.5-0.3-2.5-1-3.2c-0.6-0.7-1.6-1-2.9-1c-0.8,0-1.6,0.2-2.2,0.5c-0.6,0.3-1.1,0.8-1.5,1.4h-0.1
			c-0.5-1.3-1.7-1.9-3.5-1.9c-0.7,0-1.4,0.2-2,0.5c-0.6,0.3-1.1,0.7-1.4,1.3h-0.1l-0.3-1.6H538v11.4h1.7v-6c0-1.5,0.3-2.5,0.8-3.2
			c0.5-0.7,1.3-1,2.4-1c0.8,0,1.4,0.2,1.8,0.7c0.4,0.5,0.6,1.1,0.6,2v7.4H547z"/>
		<rect x="594.2" y="857.4" class="st3" width="1.7" height="16.2"/>
		<path class="st3" d="M532.7,810.2c0,1.5-0.3,2.5-0.8,3.2c-0.6,0.7-1.4,1-2.6,1c-0.9,0-1.6-0.2-2-0.7c-0.4-0.5-0.6-1.2-0.6-2.1
			v-7.4h-1.7v7.5c0,1.4,0.3,2.5,1,3.2c0.7,0.7,1.7,1,3.1,1c0.8,0,1.5-0.2,2.1-0.4c0.6-0.3,1.1-0.7,1.5-1.3h0.1l0.3,1.5h1.4v-11.4
			h-1.7V810.2z"/>
		<path class="st3" d="M531,839.2c0,1.5-0.3,2.5-0.8,3.2c-0.6,0.7-1.4,1-2.6,1c-0.9,0-1.6-0.2-2-0.7c-0.4-0.5-0.6-1.2-0.6-2.1v-7.4
			h-1.7v7.5c0,1.4,0.3,2.5,1,3.2c0.7,0.7,1.7,1,3.1,1c0.8,0,1.5-0.1,2.1-0.4c0.6-0.3,1.1-0.7,1.5-1.3h0.1l0.2,1.5h1.4v-11.4H531
			V839.2z"/>
		<rect x="957.1" y="804.2" class="st3" width="1.7" height="11.4"/>
		<path class="st3" d="M518.7,809.1c-1-0.4-1.7-0.7-2-0.8c-0.3-0.2-0.6-0.4-0.8-0.6c-0.2-0.2-0.2-0.5-0.2-0.8c0-0.5,0.2-0.8,0.6-1.1
			c0.4-0.3,1-0.4,1.9-0.4c0.9,0,2,0.2,3.1,0.7l0.6-1.4c-1.2-0.5-2.4-0.8-3.6-0.8c-1.3,0-2.4,0.3-3.1,0.8c-0.8,0.5-1.1,1.3-1.1,2.2
			c0,0.5,0.1,1,0.3,1.3c0.2,0.4,0.6,0.7,1,1c0.4,0.3,1.2,0.6,2.3,1c1.1,0.4,1.9,0.8,2.3,1.1c0.4,0.3,0.6,0.7,0.6,1.1
			c0,0.6-0.2,1-0.7,1.3c-0.5,0.3-1.2,0.4-2.1,0.4c-0.6,0-1.2-0.1-1.8-0.2c-0.6-0.2-1.2-0.4-1.8-0.7v1.6c0.8,0.5,2,0.7,3.5,0.7
			c1.4,0,2.5-0.3,3.3-0.9c0.8-0.6,1.2-1.4,1.2-2.5c0-0.8-0.2-1.4-0.7-1.9C521,810.1,520.1,809.6,518.7,809.1z"/>
		<rect x="536.4" y="828.4" class="st3" width="1.7" height="16.2"/>
		<rect x="541.8" y="828.4" class="st3" width="1.7" height="16.2"/>
		<path class="st3" d="M578.3,815.1c0.8,0.5,1.7,0.7,2.7,0.7c1.7,0,2.9-0.5,3.9-1.6c0.9-1,1.4-2.5,1.4-4.4c0-1.8-0.5-3.3-1.4-4.3
			c-0.9-1.1-2.2-1.6-3.8-1.6c-1.6,0-2.9,0.5-3.9,1.6c-0.9,1-1.4,2.5-1.4,4.3c0,1.2,0.2,2.3,0.6,3.1
			C576.9,813.9,577.5,814.6,578.3,815.1z M578.5,806.5c0.6-0.7,1.4-1.1,2.6-1.1c1.1,0,2,0.4,2.6,1.1c0.6,0.8,0.9,1.9,0.9,3.3
			c0,1.5-0.3,2.6-0.9,3.3c-0.6,0.8-1.4,1.1-2.6,1.1c-1.1,0-2-0.4-2.6-1.1c-0.6-0.8-0.9-1.9-0.9-3.3
			C577.6,808.4,577.9,807.3,578.5,806.5z"/>
		<path class="st3" d="M737.1,809.6c0-1.5,0.3-2.6,0.8-3.2c0.6-0.6,1.4-1,2.6-1c0.9,0,1.6,0.2,2,0.7c0.4,0.5,0.6,1.2,0.6,2.1v7.4
			h1.7v-7.4c0-1.5-0.3-2.5-1-3.2c-0.7-0.7-1.7-1-3.1-1c-0.8,0-1.5,0.2-2.1,0.5c-0.6,0.3-1.1,0.7-1.5,1.3h-0.1l-0.3-1.6h-1.4v11.4
			h1.7V809.6z"/>
		<rect x="589.3" y="799.4" class="st3" width="1.7" height="16.2"/>
		<rect x="735.2" y="828.4" class="st3" width="1.7" height="16.2"/>
		<path class="st3" d="M583.5,834.5c0.3,0,0.7,0,1.2,0.2c0.4,0.1,0.9,0.2,1.2,0.4l0.5-1.5c-0.3-0.2-0.7-0.3-1.3-0.4
			c-0.6-0.1-1.1-0.2-1.6-0.2c-1.7,0-3,0.5-3.9,1.6c-0.9,1-1.4,2.5-1.4,4.4c0,1.9,0.5,3.3,1.4,4.3c0.9,1,2.2,1.5,3.8,1.5
			c1.2,0,2.1-0.2,2.9-0.6v-1.5c-1,0.4-2,0.6-2.9,0.6c-1.1,0-1.9-0.4-2.5-1.1c-0.6-0.8-0.8-1.8-0.8-3.2
			C580,836,581.2,834.5,583.5,834.5z"/>
		<path class="st3" d="M793.1,815.8c0.8,0,1.4-0.1,2-0.2c0.5-0.1,1.1-0.3,1.7-0.6v-1.5c-1.2,0.5-2.4,0.8-3.6,0.8
			c-1.2,0-2.1-0.3-2.7-1c-0.6-0.7-1-1.7-1-3h7.9v-1.1c0-1.5-0.4-2.8-1.2-3.7c-0.8-0.9-2-1.4-3.4-1.4c-1.5,0-2.7,0.5-3.6,1.6
			c-0.9,1.1-1.4,2.5-1.4,4.4c0,1.8,0.5,3.3,1.5,4.3C790,815.3,791.4,815.8,793.1,815.8z M790.4,806.3c0.5-0.6,1.3-0.9,2.2-0.9
			c0.9,0,1.6,0.3,2.1,0.9c0.5,0.6,0.7,1.4,0.7,2.5h-6C789.5,807.7,789.9,806.9,790.4,806.3z"/>
		<path class="st3" d="M702.8,815.8c0.3-0.9,0.6-1.7,0.8-2.4l-0.2-0.2h-1.9c-0.1,0.6-0.3,1.5-0.5,2.5c-0.2,1.1-0.4,2-0.6,2.7h1.3
			C702.1,817.5,702.4,816.7,702.8,815.8z"/>
		<path class="st3" d="M749.1,809.3c0.4,0.3,1.2,0.6,2.3,1c1.1,0.4,1.9,0.8,2.3,1.1c0.4,0.3,0.6,0.7,0.6,1.1c0,0.6-0.2,1-0.7,1.3
			c-0.5,0.3-1.2,0.4-2.1,0.4c-0.6,0-1.2-0.1-1.8-0.2c-0.6-0.2-1.2-0.4-1.8-0.7v1.6c0.8,0.5,2,0.7,3.5,0.7c1.4,0,2.5-0.3,3.3-0.9
			c0.8-0.6,1.2-1.4,1.2-2.5c0-0.8-0.2-1.4-0.7-1.9c-0.5-0.5-1.4-1-2.7-1.5c-1-0.4-1.7-0.7-2-0.8c-0.3-0.2-0.6-0.4-0.8-0.6
			c-0.2-0.2-0.2-0.5-0.2-0.8c0-0.5,0.2-0.8,0.6-1.1c0.4-0.3,1-0.4,1.9-0.4c0.9,0,2,0.2,3.1,0.7l0.6-1.4c-1.2-0.5-2.4-0.8-3.6-0.8
			c-1.3,0-2.4,0.3-3.1,0.8c-0.8,0.5-1.1,1.3-1.1,2.2c0,0.5,0.1,1,0.3,1.3C748.3,808.7,748.6,809,749.1,809.3z"/>
		<path class="st3" d="M664,809.6c0-1.5,0.3-2.5,0.8-3.2c0.5-0.7,1.3-1,2.4-1c0.8,0,1.4,0.2,1.8,0.7c0.4,0.5,0.6,1.1,0.6,2v7.4h1.7
			v-6.4c0-1.3,0.3-2.2,0.8-2.9c0.5-0.6,1.3-0.9,2.4-0.9c0.8,0,1.4,0.2,1.8,0.7c0.4,0.5,0.6,1.1,0.6,2v7.4h1.7v-7.4
			c0-1.5-0.3-2.5-1-3.2c-0.6-0.7-1.6-1-2.9-1c-0.8,0-1.6,0.2-2.2,0.5c-0.6,0.3-1.1,0.8-1.5,1.4h-0.1c-0.5-1.3-1.7-1.9-3.5-1.9
			c-0.7,0-1.4,0.2-2,0.5c-0.6,0.3-1.1,0.7-1.4,1.3H664l-0.3-1.6h-1.4v11.4h1.7V809.6z"/>
		<path class="st3" d="M716.9,815.8c1.2,0,2.1-0.2,2.9-0.6v-1.5c-1,0.4-2,0.6-2.9,0.6c-1.1,0-1.9-0.4-2.5-1.1
			c-0.6-0.7-0.8-1.8-0.8-3.2c0-3,1.2-4.4,3.5-4.4c0.3,0,0.7,0,1.2,0.1c0.5,0.1,0.9,0.2,1.2,0.4l0.5-1.5c-0.3-0.2-0.7-0.3-1.3-0.4
			c-0.5-0.1-1.1-0.2-1.6-0.2c-1.7,0-3,0.5-3.9,1.6c-0.9,1-1.4,2.5-1.4,4.4c0,1.9,0.5,3.3,1.4,4.3C714,815.3,715.3,815.8,716.9,815.8
			z"/>
		<path class="st3" d="M711.3,842.1L711.3,842.1l-8.4-12.7h-2v15.2h1.6v-8.7c0-1.2-0.1-2.6-0.2-4.1h0.1l8.3,12.8h2v-15.2h-1.7v8.7
			c0,0.4,0,1.2,0.1,2.2C711.3,841.3,711.3,841.9,711.3,842.1z"/>
		<path class="st3" d="M689.5,842.4c-0.2,0.2-0.3,0.6-0.3,1c0,0.5,0.1,0.9,0.3,1.1c0.2,0.2,0.5,0.3,0.9,0.3c0.4,0,0.7-0.1,0.9-0.4
			c0.2-0.2,0.3-0.6,0.3-1c0-0.5-0.1-0.8-0.3-1c-0.2-0.2-0.5-0.4-0.9-0.4C690,842.1,689.7,842.2,689.5,842.4z"/>
		<path class="st3" d="M653.2,815.8c0.8,0,1.5-0.1,2.1-0.4c0.6-0.3,1.1-0.7,1.7-1.5h0.1l0.3,1.6h1.3v-7.8c0-1.3-0.3-2.3-1-2.9
			c-0.7-0.6-1.7-0.9-3-0.9c-0.7,0-1.3,0.1-2,0.3c-0.7,0.2-1.3,0.4-1.8,0.7l0.5,1.3c1.2-0.6,2.3-0.9,3.2-0.9c0.8,0,1.5,0.2,1.8,0.6
			c0.4,0.4,0.6,1.1,0.6,2v0.7l-1.9,0.1c-3.7,0.1-5.5,1.3-5.5,3.6c0,1.1,0.3,1.9,1,2.5C651.2,815.5,652.1,815.8,653.2,815.8z
			 M652.3,810.7c0.6-0.4,1.6-0.6,3-0.6l1.7-0.1v1c0,1.1-0.3,1.9-0.9,2.5c-0.6,0.6-1.5,0.9-2.5,0.9c-0.7,0-1.2-0.2-1.6-0.5
			c-0.4-0.3-0.6-0.8-0.6-1.4C651.4,811.6,651.7,811.1,652.3,810.7z"/>
		<path class="st3" d="M716.6,833.2v7.5c0,1.4,0.3,2.5,1,3.2c0.7,0.7,1.7,1,3.1,1c0.8,0,1.5-0.1,2.1-0.4c0.6-0.3,1.1-0.7,1.5-1.3
			h0.1l0.2,1.5h1.4v-11.4h-1.7v6c0,1.5-0.3,2.5-0.8,3.2c-0.6,0.7-1.4,1-2.6,1c-0.9,0-1.6-0.2-2-0.7c-0.4-0.5-0.6-1.2-0.6-2.1v-7.4
			H716.6z"/>
		<path class="st3" d="M682.1,841.3c0,2.3,1.1,3.5,3.3,3.5c0.3,0,0.6,0,1-0.1c0.4-0.1,0.6-0.1,0.8-0.2v-1.3c-0.2,0-0.4,0.1-0.7,0.1
			c-0.3,0-0.6,0.1-0.9,0.1c-0.6,0-1-0.2-1.3-0.5c-0.3-0.4-0.5-0.9-0.5-1.6v-6.7h3.3v-1.3h-3.3v-2.6h-1l-0.7,2.4l-1.6,0.7v0.8h1.6
			V841.3z"/>
		<rect x="860" y="804.2" class="st3" width="1.7" height="11.4"/>
		<path class="st3" d="M567.5,815.8c1.6,0,2.8-0.6,3.6-1.7h0.1l0.2,1.5h1.4v-16.2h-1.7v4.6l0,0.8l0.1,0.8h-0.1
			c-0.8-1.1-2-1.7-3.6-1.7c-1.5,0-2.6,0.5-3.5,1.6c-0.8,1-1.2,2.5-1.2,4.4s0.4,3.3,1.2,4.4C564.8,815.3,566,815.8,567.5,815.8z
			 M565.4,806.6c0.5-0.8,1.3-1.2,2.3-1.2c1.2,0,2,0.3,2.6,1c0.5,0.7,0.8,1.8,0.8,3.5v0.4c0,1.4-0.3,2.5-0.8,3.1
			c-0.5,0.6-1.4,1-2.6,1c-1,0-1.8-0.4-2.4-1.1c-0.5-0.7-0.8-1.8-0.8-3.3C564.6,808.5,564.8,807.4,565.4,806.6z"/>
		<path class="st3" d="M447.5,839.2c0,1.5-0.3,2.5-0.8,3.2c-0.6,0.7-1.4,1-2.6,1c-0.9,0-1.6-0.2-2-0.7c-0.4-0.5-0.6-1.2-0.6-2.1
			v-7.4h-1.7v7.5c0,1.4,0.3,2.5,1,3.2c0.7,0.7,1.7,1,3.1,1c0.8,0,1.5-0.1,2.1-0.4c0.6-0.3,1.1-0.7,1.5-1.3h0.1l0.3,1.5h1.4v-11.4
			h-1.7V839.2z"/>
		<path class="st3" d="M455.8,805.5c0.4,0,0.8,0.1,1.2,0.2l0.2-1.6c-0.4-0.1-0.9-0.1-1.4-0.1c-0.7,0-1.4,0.2-2,0.6
			c-0.6,0.4-1.1,1-1.5,1.7h-0.1l-0.2-2.1h-1.4v11.4h1.7v-6.1c0-1.1,0.3-2,1-2.8C454.1,805.9,454.9,805.5,455.8,805.5z"/>
		<path class="st3" d="M442.4,815.8c1.6,0,2.9-0.5,3.9-1.6c0.9-1,1.4-2.5,1.4-4.4c0-1.8-0.5-3.3-1.4-4.3c-0.9-1.1-2.2-1.6-3.8-1.6
			c-1.6,0-2.9,0.5-3.9,1.6c-0.9,1-1.4,2.5-1.4,4.3c0,1.2,0.2,2.3,0.6,3.1c0.4,0.9,1,1.6,1.8,2.1
			C440.5,815.6,441.4,815.8,442.4,815.8z M439.9,806.5c0.6-0.7,1.4-1.1,2.6-1.1c1.1,0,2,0.4,2.6,1.1c0.6,0.8,0.9,1.9,0.9,3.3
			c0,1.5-0.3,2.6-0.9,3.3c-0.6,0.8-1.4,1.1-2.6,1.1c-1.1,0-2-0.4-2.6-1.1c-0.6-0.8-0.9-1.9-0.9-3.3
			C439,808.4,439.3,807.3,439.9,806.5z"/>
		<path class="st3" d="M812.2,834.5c-0.8,1-1.3,2.5-1.3,4.4c0,1.9,0.4,3.3,1.2,4.3c0.8,1,2,1.5,3.5,1.5c1.6,0,2.8-0.6,3.6-1.7h0.1
			l0.2,1.5h1.4v-16.2h-1.7v4.6l0,0.8l0.1,0.8h-0.1c-0.8-1.1-2-1.7-3.6-1.7C814.2,833,813,833.5,812.2,834.5z M818.4,835.5
			c0.5,0.7,0.8,1.8,0.8,3.5v0.4c0,1.4-0.3,2.5-0.8,3.1c-0.5,0.6-1.4,1-2.6,1c-1,0-1.8-0.4-2.4-1.1c-0.5-0.7-0.8-1.8-0.8-3.3
			c0-1.4,0.3-2.6,0.8-3.3c0.5-0.8,1.3-1.2,2.3-1.2C817,834.4,817.9,834.8,818.4,835.5z"/>
		<path class="st3" d="M456.1,833.6c-0.6,0.4-1.1,1-1.5,1.7h-0.1l-0.2-2.1h-1.4v11.4h1.7v-6.1c0-1.1,0.3-2.1,1-2.8
			c0.7-0.7,1.4-1.1,2.4-1.1c0.4,0,0.8,0.1,1.2,0.2l0.2-1.6c-0.4-0.1-0.9-0.1-1.4-0.1C457.3,833,456.7,833.2,456.1,833.6z"/>
		<path class="st3" d="M462.4,829c-0.3,0-0.5,0.1-0.7,0.3c-0.2,0.2-0.3,0.5-0.3,0.9c0,0.4,0.1,0.7,0.3,0.9c0.2,0.2,0.4,0.3,0.7,0.3
			c0.3,0,0.5-0.1,0.7-0.3c0.2-0.2,0.3-0.5,0.3-0.9c0-0.4-0.1-0.7-0.3-0.9C462.9,829,462.7,829,462.4,829z"/>
		<rect x="461.5" y="833.2" class="st3" width="1.7" height="11.4"/>
		<rect x="496.3" y="804.2" class="st3" width="1.7" height="11.4"/>
		<path class="st3" d="M432.2,833c-0.7,0-1.3,0.1-2,0.3c-0.7,0.2-1.3,0.4-1.8,0.7l0.5,1.3c1.2-0.6,2.3-0.9,3.2-0.9
			c0.8,0,1.5,0.2,1.8,0.6c0.4,0.4,0.6,1.1,0.6,2v0.7l-1.9,0.1c-3.7,0.1-5.5,1.3-5.5,3.6c0,1.1,0.3,1.9,1,2.5
			c0.6,0.6,1.5,0.9,2.7,0.9c0.8,0,1.5-0.1,2.1-0.4c0.6-0.3,1.1-0.7,1.7-1.5h0.1l0.3,1.6h1.3v-7.8c0-1.3-0.3-2.3-1-2.9
			C434.6,833.3,433.6,833,432.2,833z M434.5,840c0,1.1-0.3,1.9-0.9,2.5c-0.6,0.6-1.5,0.9-2.5,0.9c-0.7,0-1.2-0.2-1.6-0.5
			c-0.4-0.3-0.6-0.8-0.6-1.4c0-0.8,0.3-1.4,0.9-1.8c0.6-0.4,1.6-0.6,3-0.6l1.7-0.1V840z"/>
		<path class="st3" d="M497.2,802.2c0.3,0,0.5-0.1,0.7-0.3c0.2-0.2,0.3-0.5,0.3-0.9c0-0.4-0.1-0.7-0.3-0.9c-0.2-0.2-0.4-0.3-0.7-0.3
			c-0.3,0-0.5,0.1-0.7,0.3c-0.2,0.2-0.3,0.5-0.3,0.9c0,0.4,0.1,0.7,0.3,0.9C496.7,802.1,496.9,802.2,497.2,802.2z"/>
		<path class="st3" d="M800.3,812.3c0,2.3,1.1,3.5,3.3,3.5c0.3,0,0.6,0,1-0.1c0.4-0.1,0.6-0.1,0.8-0.2v-1.3c-0.2,0-0.4,0.1-0.7,0.1
			c-0.3,0-0.6,0.1-0.9,0.1c-0.6,0-1-0.2-1.3-0.5c-0.3-0.4-0.5-0.9-0.5-1.6v-6.7h3.3v-1.3h-3.3v-2.6h-1l-0.7,2.4l-1.6,0.7v0.8h1.6
			V812.3z"/>
		<polygon class="st3" points="435.6,814 428.9,814 428.9,800.4 427.1,800.4 427.1,815.6 435.6,815.6 		"/>
		<path class="st3" d="M811.8,815.8c0.8,0,1.5-0.2,2.2-0.4c0.6-0.3,1.1-0.7,1.5-1.3h0.1l0.2,1.5h1.4v-11.4h-1.7v6
			c0,1.5-0.3,2.5-0.8,3.2c-0.6,0.7-1.4,1-2.6,1c-0.9,0-1.6-0.2-2-0.7c-0.4-0.5-0.6-1.2-0.6-2.1v-7.4h-1.7v7.5c0,1.4,0.3,2.5,1,3.2
			C809.3,815.5,810.4,815.8,811.8,815.8z"/>
		<path class="st3" d="M416.5,841.9L416.5,841.9l-4.9-12.5h-2.7v15.2h1.6v-9.7c0-1.5,0-2.7-0.1-3.8h0.1l5.2,13.5h1.4l5.2-13.5h0.1
			c-0.1,1.3-0.1,2.5-0.1,3.7v9.8h1.8v-15.2h-2.6L416.5,841.9z"/>
		<path class="st3" d="M686.9,815.8c0.8,0,1.4-0.1,2-0.2c0.5-0.1,1.1-0.3,1.7-0.6v-1.5c-1.2,0.5-2.4,0.8-3.6,0.8
			c-1.2,0-2.1-0.3-2.7-1c-0.6-0.7-1-1.7-1-3h7.9v-1.1c0-1.5-0.4-2.8-1.3-3.7c-0.8-0.9-2-1.4-3.4-1.4c-1.5,0-2.7,0.5-3.6,1.6
			c-0.9,1.1-1.4,2.5-1.4,4.4c0,1.8,0.5,3.3,1.5,4.3C683.9,815.3,685.3,815.8,686.9,815.8z M684.3,806.3c0.5-0.6,1.3-0.9,2.2-0.9
			c0.9,0,1.6,0.3,2.1,0.9c0.5,0.6,0.7,1.4,0.7,2.5h-6C683.4,807.7,683.7,806.9,684.3,806.3z"/>
		<path class="st3" d="M834.6,833c-1.6,0-2.9,0.5-3.9,1.6c-0.9,1-1.4,2.5-1.4,4.3c0,1.2,0.2,2.3,0.6,3.1c0.4,0.9,1,1.6,1.8,2.1
			c0.8,0.5,1.7,0.7,2.7,0.7c1.7,0,2.9-0.5,3.9-1.6c0.9-1,1.4-2.5,1.4-4.4c0-1.8-0.5-3.2-1.4-4.3C837.5,833.5,836.2,833,834.6,833z
			 M837.2,842.2c-0.6,0.8-1.4,1.1-2.6,1.1c-1.1,0-2-0.4-2.6-1.1c-0.6-0.8-0.9-1.9-0.9-3.3c0-1.5,0.3-2.6,0.9-3.3
			c0.6-0.7,1.4-1.1,2.6-1.1c1.1,0,2,0.4,2.6,1.1c0.6,0.8,0.9,1.9,0.9,3.3C838.1,840.3,837.8,841.5,837.2,842.2z"/>
		<path class="st3" d="M826.2,871.1c-0.4,0-0.7,0.1-0.9,0.4c-0.2,0.2-0.3,0.6-0.3,1.1c0,0.5,0.1,0.9,0.3,1.1
			c0.2,0.2,0.5,0.3,0.9,0.3c0.4,0,0.7-0.1,0.9-0.4c0.2-0.2,0.3-0.6,0.3-1c0-0.5-0.1-0.8-0.3-1.1C827,871.2,826.6,871.1,826.2,871.1z
			"/>
		<path class="st3" d="M839.3,804c-0.7,0-1.3,0.1-2,0.3c-0.7,0.2-1.3,0.4-1.8,0.7l0.5,1.3c1.2-0.6,2.3-0.9,3.2-0.9
			c0.8,0,1.5,0.2,1.8,0.6c0.4,0.4,0.6,1.1,0.6,2v0.7l-1.9,0.1c-3.7,0.1-5.5,1.3-5.5,3.6c0,1.1,0.3,1.9,1,2.5
			c0.6,0.6,1.5,0.9,2.7,0.9c0.8,0,1.5-0.1,2.1-0.4c0.6-0.3,1.1-0.7,1.7-1.5h0.1l0.3,1.6h1.3v-7.8c0-1.3-0.3-2.3-1-2.9
			C841.7,804.3,840.7,804,839.3,804z M841.6,811c0,1.1-0.3,1.9-0.9,2.5c-0.6,0.6-1.5,0.9-2.5,0.9c-0.7,0-1.2-0.2-1.6-0.5
			c-0.4-0.3-0.6-0.8-0.6-1.4c0-0.8,0.3-1.4,0.9-1.8c0.6-0.4,1.6-0.6,3-0.6l1.7-0.1V811z"/>
		<rect x="824.6" y="833.2" class="st3" width="1.7" height="11.4"/>
		<path class="st3" d="M883,833c-0.8,0-1.6,0.2-2.2,0.5c-0.6,0.3-1.1,0.8-1.5,1.4h-0.1c-0.5-1.3-1.7-1.9-3.5-1.9
			c-0.7,0-1.4,0.2-2,0.5c-0.6,0.3-1.1,0.7-1.4,1.3h-0.1l-0.3-1.6h-1.4v11.4h1.7v-6c0-1.5,0.3-2.5,0.8-3.2c0.5-0.7,1.3-1,2.4-1
			c0.8,0,1.4,0.2,1.8,0.7c0.4,0.5,0.6,1.1,0.6,2v7.4h1.7v-6.4c0-1.3,0.3-2.2,0.8-2.8c0.5-0.6,1.3-0.9,2.4-0.9c0.8,0,1.4,0.2,1.8,0.7
			c0.4,0.5,0.6,1.1,0.6,2v7.4h1.7v-7.4c0-1.5-0.3-2.5-1-3.2C885.2,833.3,884.2,833,883,833z"/>
		<path class="st3" d="M852.3,838.1c-1-0.4-1.7-0.7-2-0.8c-0.3-0.2-0.6-0.4-0.8-0.6c-0.2-0.2-0.2-0.5-0.2-0.8c0-0.5,0.2-0.8,0.6-1.1
			c0.4-0.3,1-0.4,1.9-0.4c0.9,0,2,0.2,3.1,0.7l0.6-1.4c-1.2-0.5-2.4-0.7-3.6-0.7c-1.3,0-2.4,0.3-3.1,0.8c-0.8,0.5-1.1,1.3-1.1,2.2
			c0,0.5,0.1,1,0.3,1.3c0.2,0.4,0.5,0.7,1,1c0.4,0.3,1.2,0.6,2.3,1c1.1,0.4,1.9,0.8,2.3,1.1c0.4,0.3,0.6,0.7,0.6,1.1
			c0,0.6-0.2,1-0.7,1.3c-0.5,0.3-1.2,0.4-2.1,0.4c-0.6,0-1.2-0.1-1.8-0.2c-0.6-0.2-1.2-0.4-1.8-0.7v1.6c0.8,0.5,2,0.7,3.5,0.7
			c1.4,0,2.5-0.3,3.3-0.9c0.8-0.6,1.2-1.4,1.2-2.5c0-0.8-0.2-1.4-0.7-1.9C854.6,839.1,853.7,838.6,852.3,838.1z"/>
		<path class="st3" d="M874.1,814.2c0.8-1,1.3-2.5,1.3-4.4c0-1.9-0.4-3.3-1.2-4.3c-0.8-1-2-1.6-3.5-1.6c-0.8,0-1.4,0.1-2,0.4
			c-0.6,0.3-1.1,0.7-1.6,1.4H867l-0.2-1.6h-1.4v16.5h1.7V816c0-0.6,0-1.2-0.1-1.9h0.1c0.4,0.6,0.9,1,1.5,1.3c0.6,0.3,1.3,0.4,2,0.4
			C872.1,815.8,873.3,815.3,874.1,814.2z M867.9,813.3c-0.5-0.7-0.8-1.8-0.8-3.4v-0.4c0-1.4,0.3-2.4,0.8-3.1c0.5-0.6,1.4-1,2.5-1
			c1,0,1.8,0.4,2.4,1.1c0.6,0.8,0.8,1.9,0.8,3.3c0,1.4-0.3,2.5-0.8,3.3c-0.6,0.8-1.3,1.2-2.3,1.2C869.3,814.3,868.4,814,867.9,813.3
			z"/>
		<path class="st3" d="M863,833c-1.5,0-2.7,0.5-3.6,1.6c-0.9,1.1-1.4,2.5-1.4,4.4c0,1.8,0.5,3.3,1.5,4.3c1,1,2.3,1.5,4,1.5
			c0.8,0,1.4-0.1,2-0.2c0.5-0.1,1.1-0.3,1.7-0.6v-1.5c-1.2,0.5-2.4,0.8-3.6,0.8c-1.2,0-2.1-0.3-2.7-1c-0.6-0.7-1-1.7-1-3.1h7.9v-1.1
			c0-1.5-0.4-2.8-1.2-3.7C865.5,833.5,864.4,833,863,833z M859.8,837.8c0.1-1.1,0.4-1.9,1-2.5c0.5-0.6,1.3-0.9,2.2-0.9
			c0.9,0,1.6,0.3,2.1,0.9c0.5,0.6,0.7,1.4,0.7,2.5H859.8z"/>
		<path class="st3" d="M772.5,833c-1.5,0-2.7,0.5-3.6,1.6c-0.9,1.1-1.4,2.5-1.4,4.4c0,1.8,0.5,3.3,1.5,4.3c1,1,2.3,1.5,4,1.5
			c0.8,0,1.4-0.1,2-0.2c0.5-0.1,1.1-0.3,1.7-0.6v-1.5c-1.2,0.5-2.4,0.8-3.6,0.8c-1.2,0-2.1-0.3-2.7-1c-0.6-0.7-1-1.7-1-3.1h7.9v-1.1
			c0-1.5-0.4-2.8-1.3-3.7C775.1,833.5,773.9,833,772.5,833z M769.3,837.8c0.1-1.1,0.4-1.9,1-2.5c0.5-0.6,1.3-0.9,2.2-0.9
			c0.9,0,1.6,0.3,2.1,0.9c0.5,0.6,0.7,1.4,0.7,2.5H769.3z"/>
		<path class="st3" d="M854.6,804l0,0.8l0.1,0.8h-0.1c-0.8-1.1-2-1.7-3.6-1.7c-1.5,0-2.6,0.5-3.5,1.6c-0.8,1-1.2,2.5-1.2,4.4
			s0.4,3.3,1.2,4.4c0.8,1,2,1.5,3.5,1.5c1.6,0,2.8-0.6,3.6-1.7h0.1l0.2,1.5h1.4v-16.2h-1.7V804z M854.6,810.3c0,1.4-0.3,2.5-0.8,3.1
			c-0.5,0.6-1.4,1-2.6,1c-1,0-1.8-0.4-2.3-1.1c-0.5-0.7-0.8-1.8-0.8-3.3c0-1.4,0.3-2.6,0.8-3.3c0.5-0.8,1.3-1.2,2.3-1.2
			c1.2,0,2,0.3,2.6,1c0.5,0.7,0.8,1.8,0.8,3.5V810.3z"/>
		<path class="st3" d="M784.2,844.8c1.6,0,2.8-0.6,3.6-1.7h0.1l0.2,1.5h1.4v-16.2h-1.7v4.6l0,0.8l0.1,0.8h-0.1
			c-0.8-1.1-2-1.7-3.6-1.7c-1.5,0-2.6,0.5-3.5,1.6c-0.8,1-1.3,2.5-1.3,4.4c0,1.9,0.4,3.3,1.2,4.3
			C781.5,844.3,782.7,844.8,784.2,844.8z M782.1,835.6c0.5-0.8,1.3-1.2,2.3-1.2c1.2,0,2,0.3,2.6,1c0.5,0.7,0.8,1.8,0.8,3.5v0.4
			c0,1.4-0.3,2.5-0.8,3.1c-0.5,0.6-1.4,1-2.6,1c-1,0-1.8-0.4-2.4-1.1c-0.5-0.7-0.8-1.8-0.8-3.3C781.3,837.5,781.5,836.4,782.1,835.6
			z"/>
		<path class="st3" d="M788.2,868.2c0,1.5-0.3,2.5-0.8,3.2c-0.6,0.7-1.4,1-2.6,1c-0.9,0-1.6-0.2-2-0.7c-0.4-0.5-0.6-1.2-0.6-2.1
			v-7.4h-1.7v7.5c0,1.4,0.3,2.5,1,3.2c0.7,0.7,1.7,1,3.1,1c0.8,0,1.5-0.2,2.1-0.5c0.6-0.3,1.1-0.7,1.5-1.3h0.1l0.2,1.5h1.4v-11.4
			h-1.7V868.2z"/>
		<path class="st3" d="M780.8,812.3c0,2.3,1.1,3.5,3.3,3.5c0.3,0,0.6,0,1-0.1c0.4-0.1,0.6-0.1,0.8-0.2v-1.3c-0.2,0-0.4,0.1-0.7,0.1
			c-0.3,0-0.6,0.1-0.9,0.1c-0.6,0-1-0.2-1.3-0.5c-0.3-0.4-0.5-0.9-0.5-1.6v-6.7h3.3v-1.3h-3.3v-2.6h-1l-0.7,2.4l-1.6,0.7v0.8h1.6
			V812.3z"/>
		<path class="st3" d="M775.2,805.5c0.3,0,0.7,0,1.2,0.1c0.4,0.1,0.9,0.2,1.2,0.4l0.5-1.5c-0.3-0.2-0.7-0.3-1.3-0.4
			c-0.5-0.1-1.1-0.2-1.6-0.2c-1.7,0-3,0.5-3.9,1.6c-0.9,1-1.4,2.5-1.4,4.4c0,1.9,0.5,3.3,1.4,4.3c0.9,1,2.2,1.5,3.8,1.5
			c1.2,0,2.1-0.2,2.9-0.6v-1.5c-1,0.4-2,0.6-2.9,0.6c-1.1,0-1.9-0.4-2.5-1.1c-0.6-0.7-0.8-1.8-0.8-3.2
			C771.7,807,772.9,805.5,775.2,805.5z"/>
		<path class="st3" d="M797.9,862c-0.7,0-1.3,0.1-2,0.3c-0.7,0.2-1.3,0.4-1.8,0.7l0.5,1.3c1.2-0.6,2.3-0.9,3.2-0.9
			c0.8,0,1.5,0.2,1.8,0.6c0.4,0.4,0.6,1.1,0.6,2v0.7l-1.9,0.1c-3.7,0.1-5.5,1.3-5.5,3.6c0,1.1,0.3,1.9,1,2.5
			c0.6,0.6,1.5,0.9,2.7,0.9c0.8,0,1.6-0.1,2.1-0.4c0.6-0.3,1.1-0.7,1.7-1.5h0.1l0.3,1.6h1.3v-7.8c0-1.3-0.3-2.3-1-2.9
			C800.2,862.3,799.2,862,797.9,862z M800.2,869c0,1.1-0.3,1.9-0.9,2.5c-0.6,0.6-1.5,0.9-2.5,0.9c-0.7,0-1.2-0.2-1.6-0.5
			c-0.4-0.3-0.6-0.8-0.6-1.4c0-0.8,0.3-1.4,0.9-1.8c0.6-0.4,1.6-0.6,3-0.6l1.7-0.1V869z"/>
		<path class="st3" d="M817.8,862c-0.8,0-1.6,0.2-2.2,0.5c-0.6,0.3-1.1,0.8-1.5,1.4h-0.1c-0.5-1.3-1.7-1.9-3.5-1.9
			c-0.7,0-1.4,0.2-2,0.5c-0.6,0.3-1.1,0.7-1.4,1.3h-0.1l-0.3-1.6h-1.4v11.4h1.7v-6c0-1.5,0.3-2.5,0.8-3.2c0.5-0.7,1.3-1,2.4-1
			c0.8,0,1.4,0.2,1.8,0.7c0.4,0.5,0.6,1.1,0.6,2v7.4h1.7v-6.4c0-1.3,0.3-2.2,0.8-2.8c0.5-0.6,1.3-0.9,2.4-0.9c0.8,0,1.4,0.2,1.8,0.7
			c0.4,0.5,0.6,1.1,0.6,2v7.4h1.7v-7.4c0-1.5-0.3-2.5-1-3.2C820.1,862.3,819.1,862,817.8,862z"/>
		<path class="st3" d="M827.1,805.7l0.2-1.6c-0.4-0.1-0.9-0.1-1.4-0.1c-0.7,0-1.4,0.2-2,0.6c-0.6,0.4-1.1,1-1.5,1.7h-0.1l-0.2-2.1
			h-1.4v11.4h1.7v-6.1c0-1.1,0.3-2,1-2.8c0.7-0.7,1.4-1.1,2.4-1.1C826.2,805.5,826.7,805.6,827.1,805.7z"/>
		<path class="st3" d="M808.5,838.9c0-1.8-0.5-3.2-1.4-4.3c-0.9-1.1-2.2-1.6-3.8-1.6c-1.6,0-2.9,0.5-3.9,1.6c-0.9,1-1.4,2.5-1.4,4.3
			c0,1.2,0.2,2.3,0.6,3.1c0.4,0.9,1,1.6,1.8,2.1c0.8,0.5,1.7,0.7,2.7,0.7c1.7,0,2.9-0.5,3.9-1.6
			C808.1,842.2,808.5,840.7,808.5,838.9z M805.9,842.2c-0.6,0.8-1.4,1.1-2.6,1.1c-1.1,0-2-0.4-2.6-1.1c-0.6-0.8-0.9-1.9-0.9-3.3
			c0-1.5,0.3-2.6,0.9-3.3c0.6-0.7,1.4-1.1,2.6-1.1c1.1,0,2,0.4,2.6,1.1c0.6,0.8,0.9,1.9,0.9,3.3
			C806.8,840.3,806.5,841.5,805.9,842.2z"/>
		<path class="st3" d="M825.5,831.3c0.3,0,0.5-0.1,0.7-0.3c0.2-0.2,0.3-0.5,0.3-0.9c0-0.4-0.1-0.7-0.3-0.9c-0.2-0.2-0.4-0.3-0.7-0.3
			c-0.3,0-0.5,0.1-0.7,0.3c-0.2,0.2-0.3,0.5-0.3,0.9c0,0.4,0.1,0.7,0.3,0.9C825,831.2,825.2,831.3,825.5,831.3z"/>
		<rect x="967.5" y="828.4" class="st3" width="1.7" height="16.2"/>
		<path class="st3" d="M967.8,814.2c-0.2,0-0.4,0.1-0.7,0.1c-0.3,0-0.6,0.1-0.9,0.1c-0.6,0-1-0.2-1.3-0.5c-0.3-0.4-0.5-0.9-0.5-1.6
			v-6.7h3.3v-1.3h-3.3v-2.6h-1l-0.7,2.4l-1.6,0.7v0.8h1.6v6.8c0,2.3,1.1,3.5,3.3,3.5c0.3,0,0.6,0,1-0.1c0.4-0.1,0.6-0.1,0.8-0.2
			V814.2z"/>
		<path class="st3" d="M959.3,833c-1.6,0-2.9,0.5-3.9,1.6c-0.9,1-1.4,2.5-1.4,4.3c0,1.2,0.2,2.3,0.6,3.1c0.4,0.9,1,1.6,1.8,2.1
			c0.8,0.5,1.7,0.7,2.7,0.7c1.7,0,2.9-0.5,3.9-1.6c0.9-1,1.4-2.5,1.4-4.4c0-1.8-0.5-3.2-1.4-4.3C962.2,833.5,960.9,833,959.3,833z
			 M961.8,842.2c-0.6,0.8-1.4,1.1-2.6,1.1c-1.1,0-2-0.4-2.6-1.1c-0.6-0.8-0.9-1.9-0.9-3.3c0-1.5,0.3-2.6,0.9-3.3
			c0.6-0.7,1.4-1.1,2.6-1.1c1.1,0,2,0.4,2.6,1.1c0.6,0.8,0.9,1.9,0.9,3.3C962.7,840.3,962.4,841.5,961.8,842.2z"/>
		<path class="st3" d="M971,813.1c-0.4,0-0.7,0.1-0.9,0.4c-0.2,0.2-0.3,0.6-0.3,1c0,0.5,0.1,0.9,0.4,1.1c0.2,0.2,0.5,0.3,0.9,0.3
			c0.4,0,0.7-0.1,0.9-0.4c0.2-0.2,0.3-0.6,0.3-1c0-0.5-0.1-0.8-0.3-1C971.7,813.2,971.4,813.1,971,813.1z"/>
		<rect x="972.9" y="828.4" class="st3" width="1.7" height="16.2"/>
		<path class="st3" d="M987.6,838.1c-1-0.4-1.7-0.7-2-0.8c-0.4-0.2-0.6-0.4-0.8-0.6c-0.2-0.2-0.2-0.5-0.2-0.8c0-0.5,0.2-0.8,0.6-1.1
			c0.4-0.3,1-0.4,1.9-0.4c0.9,0,2,0.2,3.1,0.7l0.6-1.4c-1.2-0.5-2.4-0.7-3.6-0.7c-1.3,0-2.4,0.3-3.1,0.8c-0.8,0.5-1.1,1.3-1.1,2.2
			c0,0.5,0.1,1,0.3,1.3c0.2,0.4,0.6,0.7,1,1c0.4,0.3,1.2,0.6,2.3,1c1.1,0.4,1.9,0.8,2.3,1.1c0.4,0.3,0.6,0.7,0.6,1.1
			c0,0.6-0.2,1-0.7,1.3c-0.5,0.3-1.2,0.4-2.1,0.4c-0.6,0-1.2-0.1-1.8-0.2c-0.6-0.2-1.2-0.4-1.8-0.7v1.6c0.9,0.5,2,0.7,3.5,0.7
			c1.4,0,2.5-0.3,3.3-0.9c0.8-0.6,1.2-1.4,1.2-2.5c0-0.8-0.2-1.4-0.7-1.9C989.9,839.1,989,838.6,987.6,838.1z"/>
		<path class="st3" d="M979.2,829c-0.3,0-0.5,0.1-0.7,0.3c-0.2,0.2-0.3,0.5-0.3,0.9c0,0.4,0.1,0.7,0.3,0.9c0.2,0.2,0.4,0.3,0.7,0.3
			c0.3,0,0.5-0.1,0.7-0.3c0.2-0.2,0.3-0.5,0.3-0.9c0-0.4-0.1-0.7-0.3-0.9C979.7,829,979.5,829,979.2,829z"/>
		<rect x="951.7" y="799.4" class="st3" width="1.7" height="16.2"/>
		<rect x="978.3" y="833.2" class="st3" width="1.7" height="11.4"/>
		<path class="st3" d="M907.8,833c-1.5,0-2.7,0.5-3.6,1.6c-0.9,1.1-1.4,2.5-1.4,4.4c0,1.8,0.5,3.3,1.5,4.3c1,1,2.3,1.5,4,1.5
			c0.8,0,1.4-0.1,2-0.2c0.5-0.1,1.1-0.3,1.7-0.6v-1.5c-1.2,0.5-2.4,0.8-3.6,0.8c-1.2,0-2.1-0.3-2.7-1c-0.6-0.7-1-1.7-1-3.1h7.9v-1.1
			c0-1.5-0.4-2.8-1.2-3.7C910.4,833.5,909.2,833,907.8,833z M904.6,837.8c0.1-1.1,0.4-1.9,1-2.5c0.5-0.6,1.3-0.9,2.2-0.9
			c0.9,0,1.6,0.3,2.1,0.9c0.5,0.6,0.7,1.4,0.7,2.5H904.6z"/>
		<path class="st3" d="M917.3,808.2v7.4h1.7v-7.4c0-1.5-0.3-2.5-1-3.2c-0.7-0.7-1.7-1-3.1-1c-0.8,0-1.5,0.2-2.1,0.5
			c-0.6,0.3-1.1,0.7-1.5,1.3h-0.1l-0.3-1.6h-1.4v11.4h1.7v-6c0-1.5,0.3-2.6,0.8-3.2c0.6-0.6,1.4-1,2.6-1c0.9,0,1.6,0.2,2,0.7
			C917.1,806.6,917.3,807.3,917.3,808.2z"/>
		<path class="st3" d="M898.6,805.5c0.3,0,0.7,0,1.2,0.1c0.5,0.1,0.9,0.2,1.2,0.4l0.5-1.5c-0.3-0.2-0.7-0.3-1.3-0.4
			c-0.5-0.1-1.1-0.2-1.6-0.2c-1.7,0-3,0.5-3.9,1.6c-0.9,1-1.4,2.5-1.4,4.4c0,1.9,0.5,3.3,1.4,4.3c0.9,1,2.2,1.5,3.8,1.5
			c1.2,0,2.1-0.2,2.9-0.6v-1.5c-1,0.4-2,0.6-2.9,0.6c-1.1,0-1.9-0.4-2.5-1.1c-0.6-0.7-0.8-1.8-0.8-3.2
			C895.1,807,896.3,805.5,898.6,805.5z"/>
		<path class="st3" d="M891.2,812.5c0-0.8-0.2-1.4-0.7-1.9c-0.5-0.5-1.4-1-2.7-1.5c-1-0.4-1.7-0.7-2-0.8c-0.3-0.2-0.6-0.4-0.8-0.6
			c-0.2-0.2-0.2-0.5-0.2-0.8c0-0.5,0.2-0.8,0.6-1.1c0.4-0.3,1-0.4,1.9-0.4c0.9,0,2,0.2,3.1,0.7l0.6-1.4c-1.2-0.5-2.4-0.8-3.6-0.8
			c-1.3,0-2.4,0.3-3.1,0.8c-0.8,0.5-1.1,1.3-1.1,2.2c0,0.5,0.1,1,0.3,1.3c0.2,0.4,0.5,0.7,1,1c0.4,0.3,1.2,0.6,2.3,1
			c1.1,0.4,1.9,0.8,2.3,1.1c0.4,0.3,0.6,0.7,0.6,1.1c0,0.6-0.2,1-0.7,1.3c-0.5,0.3-1.2,0.4-2.1,0.4c-0.6,0-1.2-0.1-1.8-0.2
			c-0.6-0.2-1.2-0.4-1.8-0.7v1.6c0.8,0.5,2,0.7,3.5,0.7c1.4,0,2.5-0.3,3.3-0.9C890.8,814.4,891.2,813.5,891.2,812.5z"/>
		<path class="st3" d="M895.7,833c-0.8,0-1.4,0.1-2,0.4c-0.6,0.3-1.1,0.7-1.6,1.4H892l-0.2-1.6h-1.4v16.5h1.7V845
			c0-0.6,0-1.2-0.1-1.9h0.1c0.4,0.6,0.9,1,1.5,1.3c0.6,0.3,1.3,0.4,2,0.4c1.5,0,2.6-0.5,3.5-1.6c0.8-1,1.3-2.5,1.3-4.4
			c0-1.9-0.4-3.3-1.2-4.3C898.4,833.5,897.2,833,895.7,833z M897.8,842.2c-0.6,0.8-1.3,1.2-2.3,1.2c-1.2,0-2-0.3-2.6-1
			c-0.5-0.7-0.8-1.8-0.8-3.4v-0.4c0-1.4,0.3-2.4,0.8-3.1c0.5-0.6,1.4-1,2.5-1c1,0,1.8,0.4,2.4,1.1c0.6,0.8,0.8,1.9,0.8,3.3
			C898.6,840.3,898.3,841.4,897.8,842.2z"/>
		<path class="st3" d="M926.4,804c-1.4,0-2.4,0.3-3.2,1c-0.7,0.7-1.1,1.6-1.1,2.9c0,0.7,0.2,1.4,0.6,2c0.4,0.6,0.9,1,1.4,1.2
			c-0.5,0.3-0.8,0.6-1,0.9c-0.2,0.3-0.3,0.7-0.3,1.1c0,0.4,0.1,0.7,0.3,1c0.2,0.3,0.4,0.5,0.7,0.6c-0.8,0.2-1.4,0.5-1.9,1
			c-0.4,0.5-0.7,1.1-0.7,1.8c0,1,0.4,1.8,1.2,2.3c0.8,0.6,2,0.8,3.5,0.8c1.9,0,3.4-0.3,4.4-1c1-0.7,1.5-1.6,1.5-2.9
			c0-1-0.3-1.7-1-2.3c-0.7-0.5-1.6-0.8-2.8-0.8h-2c-0.6,0-1.1-0.1-1.3-0.2c-0.3-0.1-0.4-0.4-0.4-0.7c0-0.6,0.4-1.1,1.1-1.5
			c0.3,0.1,0.6,0.1,1,0.1c1.3,0,2.4-0.3,3.1-1c0.8-0.7,1.1-1.6,1.1-2.7c0-0.5-0.1-0.9-0.2-1.3c-0.2-0.4-0.3-0.7-0.5-1l2.1-0.2v-1.1
			H928C927.5,804,927,804,926.4,804z M925.3,815.3h2.1c1.1,0,1.8,0.1,2.2,0.4c0.4,0.2,0.6,0.7,0.6,1.3c0,0.7-0.3,1.3-1,1.8
			c-0.7,0.4-1.8,0.7-3.2,0.7c-1,0-1.7-0.2-2.2-0.5c-0.5-0.3-0.8-0.8-0.8-1.4c0-0.7,0.2-1.2,0.7-1.6
			C923.9,815.5,924.5,815.3,925.3,815.3z M928.8,807.8c0,1.6-0.8,2.5-2.5,2.5c-0.8,0-1.4-0.2-1.9-0.6c-0.5-0.4-0.7-1-0.7-1.8
			c0-0.9,0.2-1.5,0.7-1.9c0.4-0.4,1.1-0.7,1.9-0.7C928,805.2,928.8,806.1,928.8,807.8z"/>
		<path class="st3" d="M918.6,833.6c-0.6,0.4-1.1,1-1.5,1.7H917l-0.2-2.1h-1.4v11.4h1.7v-6.1c0-1.1,0.3-2.1,1-2.8
			c0.7-0.7,1.4-1.1,2.4-1.1c0.4,0,0.8,0.1,1.2,0.2l0.2-1.6c-0.4-0.1-0.9-0.1-1.4-0.1C919.9,833,919.2,833.2,918.6,833.6z"/>
		<path class="st3" d="M947.2,833c-0.8,0-1.6,0.2-2.2,0.5c-0.6,0.3-1.1,0.8-1.5,1.4h-0.1c-0.5-1.3-1.7-1.9-3.5-1.9
			c-0.7,0-1.4,0.2-2,0.5c-0.6,0.3-1.1,0.7-1.4,1.3h-0.1l-0.3-1.6h-1.4v11.4h1.7v-6c0-1.5,0.3-2.5,0.8-3.2c0.5-0.7,1.3-1,2.4-1
			c0.8,0,1.4,0.2,1.8,0.7c0.4,0.5,0.6,1.1,0.6,2v7.4h1.7v-6.4c0-1.3,0.3-2.2,0.8-2.8c0.5-0.6,1.3-0.9,2.4-0.9c0.8,0,1.4,0.2,1.8,0.7
			c0.4,0.5,0.6,1.1,0.6,2v7.4h1.7v-7.4c0-1.5-0.3-2.5-1-3.2C949.5,833.3,948.5,833,947.2,833z"/>
		<path class="st3" d="M924,842.1c-0.1,0.6-0.3,1.5-0.5,2.5c-0.2,1.1-0.4,2-0.6,2.7h1.3c0.4-0.8,0.7-1.6,1.1-2.6
			c0.3-0.9,0.6-1.7,0.8-2.4l-0.2-0.2H924z"/>
		<path class="st3" d="M651.7,862c-1.5,0-2.7,0.5-3.6,1.6c-0.9,1.1-1.4,2.5-1.4,4.4c0,1.8,0.5,3.3,1.5,4.3c1,1,2.3,1.5,4,1.5
			c0.8,0,1.4-0.1,2-0.2c0.5-0.1,1.1-0.3,1.7-0.6v-1.5c-1.2,0.5-2.4,0.8-3.6,0.8c-1.2,0-2.1-0.3-2.7-1c-0.6-0.7-1-1.7-1-3.1h7.9v-1.1
			c0-1.5-0.4-2.8-1.2-3.7C654.3,862.5,653.1,862,651.7,862z M648.5,866.8c0.1-1.1,0.4-1.9,1-2.5c0.5-0.6,1.3-0.9,2.2-0.9
			c0.9,0,1.6,0.3,2.1,0.9c0.5,0.6,0.7,1.4,0.7,2.5H648.5z"/>
		<path class="st3" d="M628.5,844.8c0.8,0,1.4-0.1,2-0.2c0.5-0.1,1.1-0.3,1.7-0.6v-1.5c-1.2,0.5-2.4,0.8-3.6,0.8
			c-1.2,0-2.1-0.3-2.7-1c-0.6-0.7-1-1.7-1-3.1h7.9v-1.1c0-1.5-0.4-2.8-1.2-3.7c-0.8-0.9-2-1.4-3.4-1.4c-1.5,0-2.7,0.5-3.6,1.6
			c-0.9,1.1-1.4,2.5-1.4,4.4c0,1.8,0.5,3.3,1.5,4.3C625.5,844.3,626.8,844.8,628.5,844.8z M625.8,835.3c0.5-0.6,1.3-0.9,2.2-0.9
			c0.9,0,1.6,0.3,2.1,0.9c0.5,0.6,0.7,1.4,0.7,2.5h-6C625,836.7,625.3,835.9,625.8,835.3z"/>
		<path class="st3" d="M628.9,862c-0.8,0-1.5,0.2-2.1,0.5c-0.6,0.3-1.1,0.7-1.5,1.3h-0.1l-0.3-1.6h-1.4v11.4h1.7v-6
			c0-1.5,0.3-2.5,0.8-3.2c0.6-0.6,1.4-1,2.6-1c0.9,0,1.6,0.2,2,0.7c0.4,0.5,0.6,1.2,0.6,2.1v7.4h1.7v-7.4c0-1.5-0.3-2.5-1-3.2
			C631.3,862.3,630.2,862,628.9,862z"/>
		<rect x="632" y="804.2" class="st3" width="1.7" height="11.4"/>
		<path class="st3" d="M626.8,813.9c-0.5,0.3-1.2,0.4-2.1,0.4c-0.6,0-1.2-0.1-1.8-0.2c-0.6-0.2-1.2-0.4-1.8-0.7v1.6
			c0.9,0.5,2,0.7,3.5,0.7c1.4,0,2.5-0.3,3.3-0.9c0.8-0.6,1.2-1.4,1.2-2.5c0-0.8-0.2-1.4-0.7-1.9c-0.5-0.5-1.4-1-2.7-1.5
			c-1-0.4-1.6-0.7-2-0.8c-0.3-0.2-0.6-0.4-0.8-0.6c-0.2-0.2-0.2-0.5-0.2-0.8c0-0.5,0.2-0.8,0.6-1.1c0.4-0.3,1-0.4,1.9-0.4
			c0.9,0,2,0.2,3.1,0.7l0.6-1.4c-1.2-0.5-2.4-0.8-3.6-0.8c-1.3,0-2.4,0.3-3.1,0.8c-0.8,0.5-1.1,1.3-1.1,2.2c0,0.5,0.1,1,0.3,1.3
			c0.2,0.4,0.6,0.7,1,1c0.4,0.3,1.2,0.6,2.3,1c1.1,0.4,1.9,0.8,2.3,1.1c0.4,0.3,0.6,0.7,0.6,1.1
			C627.5,813.2,627.3,813.6,626.8,813.9z"/>
		<path class="st3" d="M641.1,814.4c-0.6,0-1-0.2-1.3-0.5c-0.3-0.4-0.5-0.9-0.5-1.6v-6.7h3.3v-1.3h-3.3v-2.6h-1l-0.7,2.4l-1.6,0.7
			v0.8h1.6v6.8c0,2.3,1.1,3.5,3.3,3.5c0.3,0,0.6,0,1-0.1c0.4-0.1,0.6-0.1,0.8-0.2v-1.3c-0.2,0-0.4,0.1-0.7,0.1
			C641.7,814.3,641.4,814.4,641.1,814.4z"/>
		<path class="st3" d="M615.9,833c-0.8,0-1.4,0.1-2,0.4c-0.6,0.3-1.1,0.7-1.6,1.4h-0.1l-0.2-1.6h-1.4v16.5h1.7V845
			c0-0.6,0-1.2-0.1-1.9h0.1c0.4,0.6,0.9,1,1.5,1.3c0.6,0.3,1.3,0.4,2,0.4c1.5,0,2.6-0.5,3.5-1.6c0.8-1,1.3-2.5,1.3-4.4
			c0-1.9-0.4-3.3-1.2-4.3C618.6,833.5,617.4,833,615.9,833z M618,842.2c-0.6,0.8-1.3,1.2-2.3,1.2c-1.2,0-2-0.3-2.6-1
			c-0.5-0.7-0.8-1.8-0.8-3.4v-0.4c0-1.4,0.3-2.4,0.8-3.1c0.5-0.6,1.4-1,2.5-1c1,0,1.8,0.4,2.4,1.1c0.6,0.8,0.8,1.9,0.8,3.3
			C618.9,840.3,618.6,841.4,618,842.2z"/>
		<path class="st3" d="M632.9,799.9c-0.3,0-0.5,0.1-0.7,0.3c-0.2,0.2-0.3,0.5-0.3,0.9c0,0.4,0.1,0.7,0.3,0.9
			c0.2,0.2,0.4,0.3,0.7,0.3c0.3,0,0.5-0.1,0.7-0.3c0.2-0.2,0.3-0.5,0.3-0.9c0-0.4-0.1-0.7-0.3-0.9
			C633.4,800,633.1,799.9,632.9,799.9z"/>
		<path class="st3" d="M638.9,833.6c-0.6,0.4-1.1,1-1.5,1.7h-0.1l-0.2-2.1h-1.4v11.4h1.7v-6.1c0-1.1,0.3-2.1,1-2.8
			c0.7-0.7,1.4-1.1,2.4-1.1c0.4,0,0.8,0.1,1.2,0.2l0.2-1.6c-0.4-0.1-0.9-0.1-1.4-0.1C640.1,833,639.4,833.2,638.9,833.6z"/>
		<path class="st3" d="M636.5,871.1c-0.1,0.6-0.2,1.5-0.5,2.5c-0.2,1.1-0.4,2-0.6,2.7h1.3c0.4-0.8,0.7-1.6,1.1-2.6
			c0.3-0.9,0.6-1.7,0.8-2.4l-0.2-0.2H636.5z"/>
		<path class="st3" d="M613.9,805.7l0.2-1.6c-0.4-0.1-0.9-0.1-1.4-0.1c-0.7,0-1.4,0.2-2,0.6c-0.6,0.4-1.1,1-1.5,1.7h-0.1l-0.2-2.1
			h-1.4v11.4h1.7v-6.1c0-1.1,0.3-2,1-2.8c0.7-0.7,1.4-1.1,2.4-1.1C613,805.5,613.4,805.6,613.9,805.7z"/>
		<path class="st3" d="M603.6,838.5c0-1.1,0.3-2.1,1-2.8c0.7-0.7,1.4-1.1,2.4-1.1c0.4,0,0.8,0.1,1.2,0.2l0.2-1.6
			c-0.4-0.1-0.9-0.1-1.4-0.1c-0.7,0-1.4,0.2-2,0.6c-0.6,0.4-1.1,1-1.5,1.7h-0.1l-0.2-2.1h-1.4v11.4h1.7V838.5z"/>
		<path class="st3" d="M600.5,858c-0.3,0-0.5,0.1-0.7,0.3c-0.2,0.2-0.3,0.5-0.3,0.9c0,0.4,0.1,0.7,0.3,0.9c0.2,0.2,0.4,0.3,0.7,0.3
			c0.3,0,0.5-0.1,0.7-0.3c0.2-0.2,0.3-0.5,0.3-0.9c0-0.4-0.1-0.7-0.3-0.9C601,858.1,600.8,858,600.5,858z"/>
		<rect x="599.6" y="862.2" class="st3" width="1.7" height="11.4"/>
		<path class="st3" d="M604.6,809.9c0-1.8-0.5-3.3-1.4-4.3c-0.9-1.1-2.2-1.6-3.8-1.6c-1.6,0-2.9,0.5-3.9,1.6c-0.9,1-1.4,2.5-1.4,4.3
			c0,1.2,0.2,2.3,0.6,3.1c0.4,0.9,1,1.6,1.8,2.1c0.8,0.5,1.7,0.7,2.7,0.7c1.6,0,2.9-0.5,3.9-1.6
			C604.1,813.2,604.6,811.7,604.6,809.9z M601.9,813.2c-0.6,0.8-1.4,1.1-2.6,1.1c-1.1,0-2-0.4-2.6-1.1c-0.6-0.8-0.9-1.9-0.9-3.3
			c0-1.5,0.3-2.6,0.9-3.3c0.6-0.7,1.4-1.1,2.6-1.1c1.1,0,2,0.4,2.6,1.1c0.6,0.8,0.9,1.9,0.9,3.3
			C602.8,811.3,602.5,812.4,601.9,813.2z"/>
		<path class="st3" d="M619,858c-0.3,0-0.5,0.1-0.7,0.3c-0.2,0.2-0.3,0.5-0.3,0.9c0,0.4,0.1,0.7,0.3,0.9c0.2,0.2,0.4,0.3,0.7,0.3
			c0.3,0,0.5-0.1,0.7-0.3c0.2-0.2,0.3-0.5,0.3-0.9c0-0.4-0.1-0.7-0.3-0.9C619.5,858.1,619.2,858,619,858z"/>
		<path class="st3" d="M775.2,863.8L775.2,863.8c-0.9-1.2-2.1-1.8-3.7-1.8c-1.5,0-2.6,0.5-3.5,1.6c-0.8,1-1.2,2.5-1.2,4.4
			c0,1.9,0.4,3.3,1.2,4.3c0.8,1,2,1.6,3.4,1.6c1.6,0,2.8-0.6,3.6-1.7h0.1c-0.1,0.5-0.1,1.1-0.1,1.8v4.9h1.7v-16.5h-1.4L775.2,863.8z
			 M775.1,868.3c0,1.5-0.3,2.5-0.8,3.1c-0.5,0.6-1.4,0.9-2.5,0.9c-1,0-1.8-0.4-2.4-1.1c-0.5-0.8-0.8-1.8-0.8-3.3
			c0-1.4,0.3-2.5,0.8-3.3c0.5-0.8,1.3-1.2,2.3-1.2c1.2,0,2,0.3,2.6,1.1c0.5,0.7,0.8,1.8,0.8,3.4V868.3z"/>
		<path class="st3" d="M608.7,872.4c-0.6,0-1-0.2-1.3-0.6c-0.3-0.4-0.5-0.9-0.5-1.6v-6.7h3.3v-1.3h-3.3v-2.6h-1l-0.7,2.4l-1.6,0.7
			v0.8h1.6v6.8c0,2.3,1.1,3.5,3.3,3.5c0.3,0,0.6,0,1-0.1c0.4-0.1,0.6-0.1,0.8-0.2v-1.3c-0.2,0-0.4,0.1-0.7,0.1
			C609.3,872.4,609,872.4,608.7,872.4z"/>
		<path class="st3" d="M593.7,833c-1.6,0-2.9,0.5-3.9,1.6c-0.9,1-1.4,2.5-1.4,4.3c0,1.2,0.2,2.3,0.6,3.1c0.4,0.9,1,1.6,1.8,2.1
			c0.8,0.5,1.7,0.7,2.7,0.7c1.7,0,2.9-0.5,3.9-1.6c0.9-1,1.4-2.5,1.4-4.4c0-1.8-0.5-3.2-1.4-4.3C596.5,833.5,595.3,833,593.7,833z
			 M596.2,842.2c-0.6,0.8-1.4,1.1-2.6,1.1c-1.1,0-2-0.4-2.6-1.1c-0.6-0.8-0.9-1.9-0.9-3.3c0-1.5,0.3-2.6,0.9-3.3
			c0.6-0.7,1.4-1.1,2.6-1.1c1.1,0,2,0.4,2.6,1.1c0.6,0.8,0.9,1.9,0.9,3.3C597.1,840.3,596.8,841.5,596.2,842.2z"/>
		<rect x="618.1" y="862.2" class="st3" width="1.7" height="11.4"/>
		<path class="st3" d="M745.5,844.4c0.6-0.3,1.1-0.7,1.7-1.5h0.1l0.3,1.6h1.3v-7.8c0-1.3-0.3-2.3-1-2.9c-0.7-0.6-1.7-0.9-3-0.9
			c-0.7,0-1.3,0.1-2,0.3c-0.7,0.2-1.3,0.4-1.8,0.7l0.5,1.3c1.2-0.6,2.3-0.9,3.2-0.9c0.8,0,1.5,0.2,1.8,0.6c0.4,0.4,0.6,1.1,0.6,2
			v0.7l-1.9,0.1c-3.7,0.1-5.5,1.3-5.5,3.6c0,1.1,0.3,1.9,1,2.5c0.6,0.6,1.5,0.9,2.7,0.9C744.2,844.8,744.9,844.7,745.5,844.4z
			 M741.5,841.5c0-0.8,0.3-1.4,0.9-1.8c0.6-0.4,1.6-0.6,3-0.6l1.7-0.1v1c0,1.1-0.3,1.9-0.9,2.5c-0.6,0.6-1.5,0.9-2.5,0.9
			c-0.7,0-1.2-0.2-1.6-0.5C741.7,842.6,741.5,842.1,741.5,841.5z"/>
		<path class="st3" d="M736.7,868.2c0,1.5-0.3,2.5-0.8,3.2c-0.6,0.7-1.4,1-2.6,1c-0.9,0-1.6-0.2-2-0.7c-0.4-0.5-0.6-1.2-0.6-2.1
			v-7.4h-1.8v7.5c0,1.4,0.3,2.5,1,3.2c0.7,0.7,1.7,1,3.1,1c0.8,0,1.5-0.2,2.1-0.5c0.6-0.3,1.1-0.7,1.5-1.3h0.1l0.2,1.5h1.4v-11.4
			h-1.7V868.2z"/>
		<rect x="729.8" y="828.4" class="st3" width="1.7" height="16.2"/>
		<path class="st3" d="M732.3,809.9c0-1.8-0.5-3.3-1.4-4.3c-0.9-1.1-2.2-1.6-3.8-1.6c-1.6,0-2.9,0.5-3.9,1.6c-0.9,1-1.4,2.5-1.4,4.3
			c0,1.2,0.2,2.3,0.6,3.1c0.4,0.9,1,1.6,1.8,2.1c0.8,0.5,1.7,0.7,2.7,0.7c1.6,0,2.9-0.5,3.9-1.6
			C731.9,813.2,732.3,811.7,732.3,809.9z M729.7,813.2c-0.6,0.8-1.4,1.1-2.6,1.1c-1.1,0-2-0.4-2.6-1.1c-0.6-0.8-0.9-1.9-0.9-3.3
			c0-1.5,0.3-2.6,0.9-3.3c0.6-0.7,1.4-1.1,2.6-1.1c1.1,0,2,0.4,2.6,1.1c0.6,0.8,0.9,1.9,0.9,3.3
			C730.6,811.3,730.3,812.4,729.7,813.2z"/>
		<path class="st3" d="M725.2,872.4c-0.6,0-1-0.2-1.3-0.6c-0.3-0.4-0.5-0.9-0.5-1.6v-6.7h3.3v-1.3h-3.3v-2.6h-1l-0.7,2.4l-1.6,0.7
			v0.8h1.6v6.8c0,2.3,1.1,3.5,3.3,3.5c0.3,0,0.6,0,1-0.1c0.4-0.1,0.6-0.1,0.8-0.2v-1.3c-0.2,0-0.4,0.1-0.7,0.1
			C725.8,872.4,725.5,872.4,725.2,872.4z"/>
		<path class="st3" d="M754.5,862c-0.8,0-1.6,0.2-2.2,0.5c-0.6,0.3-1.1,0.8-1.5,1.4h-0.1c-0.5-1.3-1.7-1.9-3.5-1.9
			c-0.7,0-1.4,0.2-2,0.5c-0.6,0.3-1.1,0.7-1.4,1.3h-0.1l-0.3-1.6h-1.4v11.4h1.7v-6c0-1.5,0.3-2.5,0.8-3.2c0.5-0.7,1.3-1,2.4-1
			c0.8,0,1.4,0.2,1.8,0.7c0.4,0.5,0.6,1.1,0.6,2v7.4h1.7v-6.4c0-1.3,0.3-2.2,0.8-2.8c0.5-0.6,1.3-0.9,2.4-0.9c0.8,0,1.4,0.2,1.8,0.7
			c0.4,0.5,0.6,1.1,0.6,2v7.4h1.7v-7.4c0-1.5-0.3-2.5-1-3.2C756.7,862.3,755.8,862,754.5,862z"/>
		<path class="st3" d="M767.1,813.5c-1.2,0.5-2.4,0.8-3.6,0.8c-1.2,0-2.1-0.3-2.7-1c-0.6-0.7-1-1.7-1-3h7.9v-1.1
			c0-1.5-0.4-2.8-1.3-3.7c-0.8-0.9-2-1.4-3.4-1.4c-1.5,0-2.7,0.5-3.7,1.6c-0.9,1.1-1.4,2.5-1.4,4.4c0,1.8,0.5,3.3,1.5,4.3
			c1,1,2.3,1.5,4,1.5c0.8,0,1.4-0.1,2-0.2c0.5-0.1,1.1-0.3,1.7-0.6V813.5z M760.8,806.3c0.5-0.6,1.3-0.9,2.2-0.9
			c0.9,0,1.6,0.3,2.1,0.9c0.5,0.6,0.7,1.4,0.7,2.5h-6C759.9,807.7,760.2,806.9,760.8,806.3z"/>
		<path class="st3" d="M761.9,838.1c-1-0.4-1.7-0.7-2-0.8c-0.3-0.2-0.6-0.4-0.8-0.6c-0.2-0.2-0.2-0.5-0.2-0.8c0-0.5,0.2-0.8,0.6-1.1
			c0.4-0.3,1-0.4,1.9-0.4c0.9,0,2,0.2,3.1,0.7l0.6-1.4c-1.2-0.5-2.4-0.7-3.6-0.7c-1.3,0-2.4,0.3-3.1,0.8c-0.8,0.5-1.1,1.3-1.1,2.2
			c0,0.5,0.1,1,0.3,1.3c0.2,0.4,0.5,0.7,1,1c0.4,0.3,1.2,0.6,2.3,1c1.1,0.4,1.9,0.8,2.3,1.1c0.4,0.3,0.6,0.7,0.6,1.1
			c0,0.6-0.2,1-0.7,1.3c-0.5,0.3-1.2,0.4-2.1,0.4c-0.6,0-1.2-0.1-1.8-0.2c-0.6-0.2-1.2-0.4-1.8-0.7v1.6c0.8,0.5,2,0.7,3.5,0.7
			c1.4,0,2.5-0.3,3.3-0.9c0.8-0.6,1.2-1.4,1.2-2.5c0-0.8-0.2-1.4-0.7-1.9C764.1,839.1,763.2,838.6,761.9,838.1z"/>
		<path class="st3" d="M700.8,862c-1.5,0-2.7,0.5-3.6,1.6c-0.9,1.1-1.4,2.5-1.4,4.4c0,1.8,0.5,3.3,1.5,4.3c1,1,2.3,1.5,4,1.5
			c0.8,0,1.4-0.1,2-0.2c0.5-0.1,1.1-0.3,1.7-0.6v-1.5c-1.2,0.5-2.4,0.8-3.6,0.8c-1.2,0-2.1-0.3-2.7-1c-0.6-0.7-1-1.7-1-3.1h7.9v-1.1
			c0-1.5-0.4-2.8-1.3-3.7C703.4,862.5,702.2,862,700.8,862z M697.6,866.8c0.1-1.1,0.4-1.9,1-2.5c0.5-0.6,1.3-0.9,2.2-0.9
			c0.9,0,1.6,0.3,2.1,0.9c0.5,0.6,0.7,1.4,0.7,2.5H697.6z"/>
		<path class="st3" d="M666.9,834.6c0.4,0,0.8,0.1,1.3,0.2l0.2-1.6c-0.4-0.1-0.9-0.1-1.4-0.1c-0.7,0-1.4,0.2-2,0.6
			c-0.6,0.4-1.1,1-1.5,1.7h-0.1l-0.2-2.1h-1.4v11.4h1.7v-6.1c0-1.1,0.3-2.1,1-2.8C665.2,834.9,666,834.6,666.9,834.6z"/>
		<path class="st3" d="M669,862c-1.5,0-2.7,0.5-3.6,1.6c-0.9,1.1-1.4,2.5-1.4,4.4c0,1.8,0.5,3.3,1.5,4.3c1,1,2.3,1.5,4,1.5
			c0.8,0,1.4-0.1,2-0.2c0.5-0.1,1.1-0.3,1.7-0.6v-1.5c-1.2,0.5-2.4,0.8-3.6,0.8c-1.2,0-2.1-0.3-2.7-1c-0.6-0.7-1-1.7-1-3.1h7.9v-1.1
			c0-1.5-0.4-2.8-1.2-3.7C671.6,862.5,670.5,862,669,862z M665.9,866.8c0.1-1.1,0.4-1.9,1-2.5c0.5-0.6,1.3-0.9,2.2-0.9
			c0.9,0,1.6,0.3,2.1,0.9c0.5,0.6,0.7,1.4,0.7,2.5H665.9z"/>
		<rect x="659.3" y="857.4" class="st3" width="1.7" height="16.2"/>
		<path class="st3" d="M676.7,843l0.3,1.6h1.3v-7.8c0-1.3-0.3-2.3-1-2.9c-0.7-0.6-1.7-0.9-3-0.9c-0.7,0-1.3,0.1-2,0.3
			c-0.7,0.2-1.3,0.4-1.8,0.7l0.5,1.3c1.2-0.6,2.3-0.9,3.2-0.9c0.8,0,1.5,0.2,1.8,0.6c0.4,0.4,0.6,1.1,0.6,2v0.7l-1.9,0.1
			c-3.7,0.1-5.5,1.3-5.5,3.6c0,1.1,0.3,1.9,1,2.5c0.6,0.6,1.5,0.9,2.7,0.9c0.8,0,1.5-0.1,2.1-0.4C675.5,844.2,676.1,843.7,676.7,843
			L676.7,843z M676.6,840c0,1.1-0.3,1.9-0.9,2.5c-0.6,0.6-1.5,0.9-2.5,0.9c-0.7,0-1.2-0.2-1.6-0.5c-0.4-0.3-0.6-0.8-0.6-1.4
			c0-0.8,0.3-1.4,0.9-1.8c0.6-0.4,1.6-0.6,3-0.6l1.7-0.1V840z"/>
		<path class="st3" d="M698.5,815.7c0.4-0.1,0.6-0.1,0.8-0.2v-1.3c-0.2,0-0.4,0.1-0.7,0.1c-0.3,0-0.6,0.1-0.9,0.1
			c-0.6,0-1-0.2-1.3-0.5c-0.3-0.4-0.5-0.9-0.5-1.6v-6.7h3.3v-1.3h-3.3v-2.6h-1l-0.7,2.4l-1.6,0.7v0.8h1.6v6.8c0,2.3,1.1,3.5,3.3,3.5
			C697.8,815.8,698.1,815.8,698.5,815.7z"/>
		<path class="st3" d="M654.2,833c-1.5,0-2.7,0.5-3.6,1.6c-0.9,1.1-1.4,2.5-1.4,4.4c0,1.8,0.5,3.3,1.5,4.3c1,1,2.3,1.5,4,1.5
			c0.8,0,1.4-0.1,2-0.2c0.5-0.1,1.1-0.3,1.7-0.6v-1.5c-1.2,0.5-2.4,0.8-3.6,0.8c-1.2,0-2.1-0.3-2.7-1c-0.6-0.7-1-1.7-1-3.1h7.9v-1.1
			c0-1.5-0.4-2.8-1.3-3.7C656.8,833.5,655.6,833,654.2,833z M651,837.8c0.1-1.1,0.4-1.9,1-2.5c0.5-0.6,1.3-0.9,2.2-0.9
			c0.9,0,1.6,0.3,2.1,0.9c0.5,0.6,0.7,1.4,0.7,2.5H651z"/>
		<path class="st3" d="M713.8,862c-0.8,0-1.5,0.2-2.1,0.5c-0.6,0.3-1.1,0.7-1.5,1.3h-0.1l-0.3-1.6h-1.4v11.4h1.7v-6
			c0-1.5,0.3-2.5,0.8-3.2c0.6-0.6,1.4-1,2.6-1c0.9,0,1.6,0.2,2,0.7c0.4,0.5,0.6,1.2,0.6,2.1v7.4h1.7v-7.4c0-1.5-0.3-2.5-1-3.2
			C716.2,862.3,715.2,862,713.8,862z"/>
		<path class="st3" d="M689,862c-0.8,0-1.6,0.2-2.2,0.5c-0.6,0.3-1.1,0.8-1.5,1.4h-0.1c-0.5-1.3-1.7-1.9-3.5-1.9
			c-0.7,0-1.4,0.2-2,0.5c-0.6,0.3-1.1,0.7-1.4,1.3h-0.1l-0.3-1.6h-1.4v11.4h1.7v-6c0-1.5,0.3-2.5,0.8-3.2c0.5-0.7,1.3-1,2.4-1
			c0.8,0,1.4,0.2,1.8,0.7c0.4,0.5,0.6,1.1,0.6,2v7.4h1.7v-6.4c0-1.3,0.3-2.2,0.8-2.8c0.5-0.6,1.3-0.9,2.4-0.9c0.8,0,1.4,0.2,1.8,0.7
			c0.4,0.5,0.6,1.1,0.6,2v7.4h1.7v-7.4c0-1.5-0.3-2.5-1-3.2C691.3,862.3,690.3,862,689,862z"/>
		<path class="st3" d="M588,731.8L570.2,780h12.6l3.4-9.8h17.7l3.4,9.8h12.9l-17.8-48.2H588z M589.2,761.4l5.9-17.2l5.9,17.2H589.2z
			"/>
		<path class="st3" d="M559.4,732c-1.4-0.4-2.9-0.7-4.5-0.9c-1.6-0.2-3.5-0.3-5.5-0.3c-3.7,0-7.1,0.6-10.2,1.8
			c-3.1,1.2-5.7,2.8-7.8,5c-2.2,2.2-3.8,4.9-5,8c-1.1,3.1-1.7,6.6-1.7,10.4c0,4.1,0.6,7.7,1.8,10.9c1.2,3.1,2.9,5.8,5.1,7.9
			c2.2,2.1,4.8,3.7,7.8,4.7c3,1.1,6.3,1.6,9.9,1.6c2.4,0,4.3-0.1,5.7-0.4c1.4-0.2,2.9-0.6,4.4-1c1.2-0.3,2.4-0.8,3.5-1.2
			c1.1-0.5,2.3-1,3.5-1.5v-11.5h-1.3c-0.6,0.5-1.3,1.1-2.2,1.8c-0.9,0.7-1.9,1.4-2.9,2c-1.3,0.8-2.6,1.4-4.1,1.8
			c-1.5,0.5-3,0.7-4.5,0.7c-1.6,0-3.2-0.3-4.8-0.8c-1.6-0.5-3.1-1.4-4.4-2.5c-1.3-1.2-2.4-2.8-3.2-4.8c-0.9-2-1.3-4.6-1.3-7.6
			c0-2.9,0.4-5.4,1.2-7.4c0.8-2,1.8-3.7,3.1-4.9c1.3-1.3,2.8-2.2,4.4-2.7c1.6-0.6,3.2-0.8,5-0.8c1.6,0,3.1,0.2,4.4,0.7
			c1.4,0.5,2.7,1,3.9,1.7c1.2,0.7,2.2,1.4,3.1,2.1c0.9,0.7,1.7,1.3,2.3,1.8h1.4v-11.7c-0.9-0.4-1.9-0.9-3.1-1.4
			C562.2,732.9,560.9,732.4,559.4,732z"/>
		<path class="st3" d="M712.9,735c-1.6-1.1-3.5-1.8-5.6-2.4c-2.1-0.5-4.7-0.8-7.8-0.8H679V780h12.5v-15.7h7.7c3.5,0,6.5-0.5,8.8-1.5
			c2.4-1,4.5-2.4,6.4-4.3c1.4-1.4,2.5-3.1,3.2-5.2c0.8-2.1,1.1-4.2,1.1-6.3c0-2.8-0.5-5.2-1.5-7.2
			C716.3,737.9,714.8,736.2,712.9,735z M705.4,750.8c-0.4,1-0.9,1.8-1.7,2.5c-0.9,0.8-2.1,1.3-3.4,1.5c-1.4,0.3-3.1,0.4-5.2,0.4
			h-3.5v-14.4h2.1c2,0,3.7,0,4.9,0.1c1.2,0.1,2.5,0.3,3.8,0.9c1,0.4,1.8,1.1,2.5,2c0.7,1,1.1,2.1,1.1,3.5
			C705.9,748.7,705.7,749.8,705.4,750.8z"/>
		<path class="st3" d="M806.1,730.8c-7.8,0-13.8,2.3-18.3,6.8c-4.4,4.5-6.6,10.6-6.6,18.4c0,7.7,2.2,13.8,6.6,18.3
			c4.4,4.5,10.5,6.8,18.3,6.8c7.8,0,13.9-2.3,18.3-6.8c4.4-4.5,6.6-10.6,6.6-18.3c0-7.7-2.2-13.9-6.6-18.4
			C819.9,733,813.8,730.8,806.1,730.8z M817.2,762.9c-0.6,2-1.5,3.7-2.7,5.2c-1.1,1.3-2.3,2.3-3.8,2.9c-1.4,0.6-3,0.9-4.6,0.9
			c-1.6,0-3.1-0.3-4.6-0.9c-1.4-0.6-2.7-1.6-3.8-2.8c-1.1-1.3-1.9-2.9-2.6-4.9c-0.7-2-1-4.5-1-7.3c0-2.8,0.3-5.3,1-7.4
			c0.7-2.1,1.6-3.8,2.6-5c1.2-1.3,2.4-2.2,3.8-2.8c1.4-0.6,2.9-0.8,4.5-0.8c1.5,0,3,0.3,4.5,0.9c1.4,0.6,2.7,1.5,3.8,2.8
			c1.1,1.3,2,2.9,2.6,4.9c0.7,2,1,4.5,1,7.4C818.1,758.6,817.8,760.9,817.2,762.9z"/>
		<path class="st3" d="M749.7,730.8c-7.8,0-13.8,2.3-18.3,6.8c-4.4,4.5-6.6,10.6-6.6,18.4c0,7.7,2.2,13.8,6.6,18.3
			c4.4,4.5,10.5,6.8,18.3,6.8c7.8,0,13.9-2.3,18.3-6.8c4.4-4.5,6.6-10.6,6.6-18.3c0-7.7-2.2-13.9-6.6-18.4
			C763.5,733,757.4,730.8,749.7,730.8z M760.8,762.9c-0.6,2-1.5,3.7-2.7,5.2c-1.1,1.3-2.3,2.3-3.8,2.9c-1.4,0.6-3,0.9-4.6,0.9
			c-1.6,0-3.1-0.3-4.6-0.9c-1.4-0.6-2.7-1.6-3.8-2.8c-1.1-1.3-1.9-2.9-2.6-4.9c-0.7-2-1-4.5-1-7.3c0-2.8,0.3-5.3,1-7.4
			c0.7-2.1,1.6-3.8,2.6-5c1.2-1.3,2.4-2.2,3.8-2.8c1.4-0.6,2.9-0.8,4.5-0.8c1.5,0,3,0.3,4.5,0.9c1.4,0.6,2.7,1.5,3.8,2.8
			c1.1,1.3,2,2.9,2.6,4.9c0.7,2,1,4.5,1,7.4C761.6,758.6,761.4,760.9,760.8,762.9z"/>
		<polygon class="st3" points="853,731.8 840.5,731.8 840.5,780 875.3,780 875.3,770.7 853,770.7 		"/>
		<path class="st3" d="M664.5,753.7c1.6-2.2,2.5-5.1,2.5-8.7c0-2.6-0.5-4.7-1.6-6.5c-1.1-1.7-2.5-3.1-4.3-4.2
			c-1.8-1.1-3.7-1.8-5.8-2.1c-2-0.3-4.5-0.5-7.3-0.5h-20.8V780h12.5v-17.7h5.6l13.1,17.7h15.2l-16.1-20.7
			C660.5,757.8,662.9,756,664.5,753.7z M653.5,749.7c-0.4,0.8-1,1.5-1.9,2.2c-0.9,0.7-2,1.1-3.3,1.3c-1.3,0.2-3,0.3-4.9,0.3h-3.8
			v-12.9h4.4c1.5,0,2.8,0,3.9,0.1c1.1,0.1,2.1,0.3,2.9,0.6c1.2,0.5,2,1.2,2.5,2c0.5,0.9,0.7,1.9,0.7,3.1
			C654.1,747.9,653.9,748.9,653.5,749.7z"/>
	</g>
	
		<ellipse transform="matrix(0.9659 -0.2588 0.2588 0.9659 -55.7634 126.288)" class="st4" cx="451.7" cy="274.9" rx="63.1" ry="63.1"/>
	<path class="st5" d="M464.5,281.8l-1-3.9c7.5-6.3,11.1-16.5,8.4-26.6c-3.7-13.8-17.9-22-31.7-18.3c-13.8,3.7-22,17.9-18.3,31.7
		c2.7,10.1,11,17.1,20.6,18.8l1,3.9c-14.1,8.7-21.6,26-17.1,42.8l0.7,2.7c7.8,3.3,16.4,5.1,25.1,5l19.5,11.2l11.2-19.5
		c7.3-4.2,13.7-9.7,18.7-16.2l-0.9-3.3C496.2,293.5,481.1,282.3,464.5,281.8z"/>
	
		<ellipse transform="matrix(0.2588 -0.9659 0.9659 0.2588 437.253 1119.7036)" class="st6" cx="948.3" cy="274.9" rx="63.1" ry="63.1"/>
	<path class="st7" d="M959.2,232.8c-13.8-3.7-28,4.5-31.7,18.3c-2.7,10.1,0.9,20.3,8.4,26.6l-1,3.9c-16.6,0.5-31.7,11.7-36.2,28.5
		l-0.7,2.7c5.1,6.8,11.6,12.6,19.2,16.9l11.2,19.5l19.5-11.2c8.4,0.1,16.7-1.6,24.3-4.7l0.9-3.3c4.5-16.8-3-34.1-17.1-42.8l1-3.9
		c9.6-1.7,17.9-8.8,20.6-18.8C981.2,250.8,973,236.5,959.2,232.8z"/>
	<ellipse transform="matrix(0.9919 -0.1271 0.1271 0.9919 -27.2853 80.4838)" class="st8" cx="617" cy="254" rx="63.1" ry="63.1"/>
	<path class="st9" d="M628.7,262.6l-0.5-4c8.3-5.2,13.2-14.9,11.9-25.2c-1.8-14.2-14.8-24.2-29-22.4c-14.2,1.8-24.2,14.8-22.4,29
		c1.3,10.3,8.6,18.5,17.9,21.4l0.5,4c-15.2,6.7-24.9,22.9-22.7,40.1l0.4,2.8c7.3,4.4,15.5,7.2,24.2,8.4l17.8,13.7l13.7-17.8
		c7.8-3.1,14.8-7.8,20.7-13.6l-0.4-3.4C658.5,278.4,645.1,265.2,628.7,262.6z"/>
	
		<ellipse transform="matrix(0.1271 -0.9919 0.9919 0.1271 430.763 997.5447)" class="st10" cx="782.2" cy="254" rx="63.1" ry="63.1"/>
	<path class="st11" d="M792.1,265.3l0.5-4c9.3-3,16.6-11.1,17.9-21.4c1.8-14.2-8.2-27.2-22.4-29c-14.2-1.8-27.2,8.2-29,22.4
		c-1.3,10.3,3.6,20,11.9,25.2l-0.5,4c-16.4,2.7-29.8,15.9-32.1,33.1l-0.4,3.4c5.9,5.8,12.8,10.4,20.7,13.6l13.7,17.8l17.8-13.7
		c8.7-1.1,16.9-4,24.2-8.4l0.4-2.8C816.9,288.2,807.2,272,792.1,265.3z"/>
	<g>
		<path class="st12" d="M955.1,406.7H570.1c-22.7,0-34,19.8-41.3,41.3l-18.9,55.5h-32.5c-36.7,0-66.7,30-66.7,66.7V637h99.2h39
			h442.9V443.3C991.8,423.2,975.3,406.7,955.1,406.7z"/>
		<path class="st13" d="M539.5,451.7l-17.7,51.9h116.7V418h-68.5C552.3,418,544.3,437.5,539.5,451.7z"/>
		<rect x="649.9" y="418" class="st13" width="150.5" height="85.5"/>
		<path class="st13" d="M955.1,418H811.7v85.5h168.7v-60.2C980.4,429.4,969,418,955.1,418z"/>
		<rect x="398.2" y="588" class="st14" width="603.6" height="49"/>
		<g>
			<g>
				<circle class="st15" cx="520.2" cy="631.4" r="58.8"/>
				<circle class="st1" cx="520.2" cy="631.4" r="32.2"/>
			</g>
			<g>
				<circle class="st15" cx="900.5" cy="631.4" r="58.8"/>
				<circle class="st1" cx="900.5" cy="631.4" r="32.2"/>
			</g>
		</g>
		<path class="st1" d="M620,527h-20.7c-1.9,0-3.5,1.6-3.5,3.5v0c0,1.9,1.6,3.5,3.5,3.5H620c1.9,0,3.5-1.6,3.5-3.5v0
			C623.5,528.6,621.9,527,620,527z"/>
		<path class="st1" d="M794.8,527h-20.7c-1.9,0-3.5,1.6-3.5,3.5v0c0,1.9,1.6,3.5,3.5,3.5h20.7c1.9,0,3.5-1.6,3.5-3.5v0
			C798.3,528.6,796.7,527,794.8,527z"/>
	</g>
	<g>
		<path class="st16" d="M290.6,395.8l-75.7-75.7c-4.4-4.4-10.2-6.7-16-6.9c-5.8,0.2-11.6,2.5-16,6.9l-75.7,75.7
			c-13,13-10.4,33.5,7.9,33.5h19.4l-27.2,27.2c-13,13-10.4,33.5,7.9,33.5h19.4l-27.2,27.2c-13,13-10.4,33.5,7.9,33.5h65.6v61.8h35.4
			v-61.8h66.6c18.3,0,20.8-20.5,7.9-33.5L263.4,490h19.4c18.3,0,20.8-20.5,7.9-33.5l-27.2-27.2h19.4
			C301,429.3,303.6,408.7,290.6,395.8z"/>
		<path class="st16" d="M1292.7,395.8l-75.7-75.7c-4.4-4.4-10.2-6.7-16-6.9c-5.8,0.2-11.6,2.5-16,6.9l-75.7,75.7
			c-13,13-10.4,33.5,7.9,33.5h19.4l-27.2,27.2c-13,13-10.4,33.5,7.9,33.5h19.4l-27.2,27.2c-13,13-10.4,33.5,7.9,33.5h65.6v61.8h35.4
			v-61.8h66.6c18.3,0,20.8-20.5,7.9-33.5l-27.2-27.2h19.4c18.3,0,20.8-20.5,7.9-33.5l-27.2-27.2h19.4
			C1303.1,429.3,1305.7,408.7,1292.7,395.8z"/>
	</g>
</g>
</svg>
